<?xml version="1.0" encoding="UTF-8" standalone="no"?>
<svg
   xmlns:dc="http://purl.org/dc/elements/1.1/"
   xmlns:cc="http://creativecommons.org/ns#"
   xmlns:rdf="http://www.w3.org/1999/02/22-rdf-syntax-ns#"
   xmlns:svg="http://www.w3.org/2000/svg"
   xmlns="http://www.w3.org/2000/svg"
   version="1.1"
   id="svg2"
   viewBox="0 0 390 328"
   height="328"
   width="390">
  <defs
     id="defs4" />
  <metadata
     id="metadata7">
    <rdf:RDF>
      <cc:Work
         rdf:about="">
        <dc:format>image/svg+xml</dc:format>
        <dc:type
           rdf:resource="http://purl.org/dc/dcmitype/StillImage" />
        <dc:title></dc:title>
      </cc:Work>
    </rdf:RDF>
  </metadata>
  <g
     transform="translate(0,-724.36216)"
     id="layer1">
    <g
       id="text3336"
       style="font-style:normal;font-variant:normal;font-weight:normal;font-stretch:normal;font-size:22.5px;line-height:125%;font-family:'Courier 10 Pitch';-inkscape-font-specification:'Courier 10 Pitch, Normal';text-align:start;letter-spacing:0px;word-spacing:0px;writing-mode:lr-tb;text-anchor:start;fill:#000000;fill-opacity:1;stroke:none;stroke-width:1px;stroke-linecap:butt;stroke-linejoin:miter;stroke-opacity:1">
      <path
         id="path4627"
         style="fill:#0000ff"
         d="m 6.03,725.95965 0,11.25 -3.0375,0 c -0.6075,0 -0.9225,0.2475 -0.9225,0.765 0,0.5175 0.2925,0.7875 0.8775,0.7875 l 8.1,0 c 0.6525,0 0.9,-0.1575 0.9,-0.7875 0,-0.54 -0.27,-0.765 -0.8325,-0.765 l -3.42,0 0,-12.375 c 0,-0.27 -0.2025,-0.45 -0.63,-0.45 l -3.6225,0 c -0.585,0 -0.8775,0.27 -0.8775,0.7875 0,0.5625 0.315,0.765 1.035,0.765 0.1125,0 0.315,0.0225 0.5625,0.0225 l 1.8675,0 z" />
      <path
         id="path4629"
         style="fill:#0000ff"
         d="m 16.640156,732.73215 c 0.4275,-1.8225 1.845,-2.9025 3.78,-2.9025 1.7775,0 3.1725,1.1475 3.375,2.9025 l -7.155,0 z m -0.045,1.44 7.38,0 c 1.35,0 1.8225,0 1.8225,-1.035 0,-2.4525 -2.0475,-4.815 -5.3775,-4.815 -3.3975,0 -5.7375,2.1825 -5.7375,5.3325 0,3.285 2.115,5.3775 5.5125,5.3775 1.485,0 3.0825,-0.36 4.59,-1.1025 0.6525,-0.315 0.9675,-0.6525 0.9675,-1.1025 0,-0.405 -0.3375,-0.72 -0.765,-0.72 -0.99,0 -2.4075,1.3725 -4.635,1.3725 -2.2725,0 -3.645,-1.1925 -3.7575,-3.3075 z" />
      <path
         id="path4631"
         style="fill:#0000ff"
         d="m 36.835312,729.22215 -4.32,0 0,-2.2275 c 0,-1.08 -0.09,-1.53 -0.8775,-1.53 -0.585,0 -0.855,0.315 -0.855,0.9225 0,0.2925 0,0.495 0,0.585 l 0,2.25 -1.215,0 c -1.057499,0 -1.5075,0.0675 -1.5075,0.7875 0,0.54 0.270001,0.765 0.8775,0.765 l 1.845,0 0,3.6675 c 0,0.1125 0,0.225 0,0.3375 0,1.0125 0.0225,1.89 0.405,2.5425 0.63,1.1025 1.8,1.6425 3.487501,1.6425 1.034999,0 2.1825,-0.2925 3.554999,-0.8325 0.81,-0.315 1.215,-0.63 1.215,-1.1475 0,-0.405 -0.36,-0.7875 -0.765,-0.7875 -0.877499,0 -2.339999,1.17 -4.1175,1.17 -1.935,0 -2.07,-1.17 -2.07,-2.925 l 0,-3.6675 4.455,0 c 0.6075,0 0.9225,-0.2475 0.9225,-0.765 0,-0.5625 -0.3375,-0.7875 -1.035,-0.7875 z" />
      <path
         id="path4633"
         style="fill:#001080;fill-opacity:1"
         d="m 64.288125,737.18715 -3.6,0 0,-6.705 3.825,0 c 0.5625,0 0.8775,-0.2925 0.8775,-0.81 0,-0.5175 -0.315,-0.7875 -0.9225,-0.7875 l -3.8475,0 c -0.0225,-0.225 -0.0225,-0.4275 -0.0225,-0.63 0,-1.575 0.6525,-2.25 2.3175,-2.25 0.9675,0 1.71,0.27 2.25,0.27 0.5175,0 0.9,-0.315 0.9,-0.7875 0,-0.7875 -0.81,-1.125 -2.4075,-1.125 -3.3525,0 -4.815,1.1025 -4.815,3.735 0,0.2475 0.0225,0.5175 0.045,0.7875 l -1.755,0 c -0.585,0 -0.8775,0.27 -0.8775,0.7875 0,0.5175 0.2925,0.81 0.9,0.81 l 1.8225,0 0,6.705 -1.8675,0 c -0.5625,0 -0.8775,0.27 -0.8775,0.7875 0,0.5175 0.315,0.7875 0.9225,0.7875 l 7.1775,0 c 0.585,0 0.8775,-0.27 0.8775,-0.7875 0,-0.5175 -0.315,-0.7875 -0.9225,-0.7875 z" />
      <path
         id="path4635"
         style="fill:#001080;fill-opacity:1"
         d="m 80.185781,733.69965 c 0,-3.0375 -2.25,-5.3325 -5.7375,-5.3325 -3.4875,0 -5.76,2.2725 -5.76,5.3325 0,3.06 2.2725,5.3325 5.76,5.3325 3.4875,0 5.7375,-2.2725 5.7375,-5.3325 z m -5.7375,3.8025 c -2.2725,0 -3.8475,-1.62 -3.8475,-3.8025 0,-2.1825 1.575,-3.825 3.8475,-3.825 2.2725,0 3.8475,1.6425 3.8475,3.825 0,2.205 -1.575,3.8025 -3.8475,3.8025 z" />
      <path
         id="path4637"
         style="fill:#001080;fill-opacity:1"
         d="m 93.720938,733.69965 c 0,-3.0375 -2.25,-5.3325 -5.737501,-5.3325 -3.4875,0 -5.759999,2.2725 -5.759999,5.3325 0,3.06 2.272499,5.3325 5.759999,5.3325 3.487501,0 5.737501,-2.2725 5.737501,-5.3325 z m -5.737501,3.8025 c -2.2725,0 -3.8475,-1.62 -3.8475,-3.8025 0,-2.1825 1.575,-3.825 3.8475,-3.825 2.272501,0 3.847501,1.6425 3.847501,3.825 0,2.205 -1.575,3.8025 -3.847501,3.8025 z" />
      <path
         id="path4639"
         style=""
         d="m 110.12625,734.48715 9.8325,0 c 0.45,0 0.6975,-0.27 0.6975,-0.81 0,-0.54 -0.2475,-0.81 -0.6975,-0.81 l -9.8325,0 c -0.45,0 -0.6975,0.27 -0.6975,0.81 0,0.54 0.2475,0.81 0.6975,0.81 z m 0,-3.69 9.8325,0 c 0.45,0 0.6975,-0.27 0.6975,-0.81 0,-0.54 -0.2475,-0.81 -0.6975,-0.81 l -9.8325,0 c -0.45,0 -0.6975,0.27 -0.6975,0.81 0,0.54 0.2475,0.81 0.6975,0.81 z" />
      <path
         id="path4641"
         style="fill:#09885a;fill-opacity:1"
         d="m 139.64906,730.16715 0,-3.555 4.9725,0 c 0.675,0 1.0575,-0.315 1.0575,-0.855 0,-0.5625 -0.3375,-0.855 -1.0575,-0.855 l -5.5575,0 c -0.6975,0 -1.0125,0.1575 -1.0125,0.675 l 0,5.4675 c 0,0.6975 0.0675,1.125 0.6075,1.125 0.6525,0 1.3725,-0.99 3.0825,-0.99 1.755,0 3.06,1.3725 3.06,3.1725 0,1.8225 -1.305,3.1725 -3.3075,3.1725 -1.71,0 -2.925,-0.855 -3.465,-0.855 -0.4275,0 -0.765,0.36 -0.765,0.7425 0,0.9 1.755,1.71 4.3425,1.71 2.9925,0 5.04,-2.0925 5.04,-4.8375 0,-2.61 -1.8675,-4.635 -4.4775,-4.635 -0.765,0 -1.5975,0.18 -2.52,0.5175 z" />
      <path
         id="path4643"
         style=""
         d="m 153.43172,730.88715 c 0,1.125 0.855,1.9575 2.16,1.9575 1.305,0 2.1825,-0.81 2.1825,-1.9575 0,-1.1475 -0.8775,-1.9575 -2.1825,-1.9575 -1.305,0 -2.16,0.8325 -2.16,1.9575 z m 0.855,5.1975 -1.3275,5.2425 c -0.0225,0.0675 -0.045,0.1575 -0.045,0.27 0,0.1575 0.135,0.315 0.3375,0.3825 l 0.72,0.27 c 0.0675,0.0225 0.135,0.045 0.2025,0.045 0.2025,0 0.36,-0.135 0.4725,-0.36 l 2.835,-5.895 c 0.0675,-0.135 0.09,-0.225 0.09,-0.2925 0,-0.1125 -0.135,-0.225 -0.3375,-0.225 l -2.2725,0 c -0.4725,0 -0.5625,0.135 -0.675,0.5625 z" />
      <path
         id="path4645"
         style="fill:#0000ff"
         d="m 6.03,754.08465 0,11.25 -3.0375,0 c -0.6075,0 -0.9225,0.2475 -0.9225,0.765 0,0.5175 0.2925,0.7875 0.8775,0.7875 l 8.1,0 c 0.6525,0 0.9,-0.1575 0.9,-0.7875 0,-0.54 -0.27,-0.765 -0.8325,-0.765 l -3.42,0 0,-12.375 c 0,-0.27 -0.2025,-0.45 -0.63,-0.45 l -3.6225,0 c -0.585,0 -0.8775,0.27 -0.8775,0.7875 0,0.5625 0.315,0.765 1.035,0.765 0.1125,0 0.315,0.0225 0.5625,0.0225 l 1.8675,0 z" />
      <path
         id="path4647"
         style="fill:#0000ff"
         d="m 16.640156,760.85715 c 0.4275,-1.8225 1.845,-2.9025 3.78,-2.9025 1.7775,0 3.1725,1.1475 3.375,2.9025 l -7.155,0 z m -0.045,1.44 7.38,0 c 1.35,0 1.8225,0 1.8225,-1.035 0,-2.4525 -2.0475,-4.815 -5.3775,-4.815 -3.3975,0 -5.7375,2.1825 -5.7375,5.3325 0,3.285 2.115,5.3775 5.5125,5.3775 1.485,0 3.0825,-0.36 4.59,-1.1025 0.6525,-0.315 0.9675,-0.6525 0.9675,-1.1025 0,-0.405 -0.3375,-0.72 -0.765,-0.72 -0.99,0 -2.4075,1.3725 -4.635,1.3725 -2.2725,0 -3.645,-1.1925 -3.7575,-3.3075 z" />
      <path
         id="path4649"
         style="fill:#0000ff"
         d="m 36.835312,757.34715 -4.32,0 0,-2.2275 c 0,-1.08 -0.09,-1.53 -0.8775,-1.53 -0.585,0 -0.855,0.315 -0.855,0.9225 0,0.2925 0,0.495 0,0.585 l 0,2.25 -1.215,0 c -1.057499,0 -1.5075,0.0675 -1.5075,0.7875 0,0.54 0.270001,0.765 0.8775,0.765 l 1.845,0 0,3.6675 c 0,0.1125 0,0.225 0,0.3375 0,1.0125 0.0225,1.89 0.405,2.5425 0.63,1.1025 1.8,1.6425 3.487501,1.6425 1.034999,0 2.1825,-0.2925 3.554999,-0.8325 0.81,-0.315 1.215,-0.63 1.215,-1.1475 0,-0.405 -0.36,-0.7875 -0.765,-0.7875 -0.877499,0 -2.339999,1.17 -4.1175,1.17 -1.935,0 -2.07,-1.17 -2.07,-2.925 l 0,-3.6675 4.455,0 c 0.6075,0 0.9225,-0.2475 0.9225,-0.765 0,-0.5625 -0.3375,-0.7875 -1.035,-0.7875 z" />
      <path
         id="path4651"
         style="font-style:italic;font-variant:normal;font-weight:normal;font-stretch:normal;font-size:22.5px;line-height:125%;font-family:'Courier 10 Pitch';-inkscape-font-specification:'Courier 10 Pitch, Italic';text-align:start;writing-mode:lr-tb;text-anchor:start;fill:#001080;fill-opacity:1"
         d="m 58.640625,758.31465 1.1475,-5.265 c 0.0225,-0.0675 0.0225,-0.135 0.0225,-0.2025 0,-0.2475 -0.1575,-0.3375 -0.5175,-0.3375 l -1.7325,0 c -0.6525,0 -0.99,0.315 -0.99,0.8775 0,0.4275 0.225,0.63 0.6525,0.63 l 0.6975,0 -2.385,11.3625 -0.63,0 c -0.6525,0 -0.9675,0.315 -0.9675,0.9 0,0.405 0.2025,0.6075 0.6525,0.6075 l 1.4175,0 c 0.585,0 0.8775,-0.2025 0.99,-0.7425 l 0.135,-0.6525 c 0.7425,1.125 1.9125,1.6875 3.5775,1.6875 3.33,0 6.0525,-2.7 6.0525,-6.1425 0,-2.6325 -1.6875,-4.2975 -4.23,-4.2975 -1.395,0 -2.7,0.5175 -3.8925,1.575 z m 3.5775,-0.09 c 1.5975,0 2.7225,1.0575 2.7225,2.7675 0,2.745 -1.8225,4.7025 -4.185,4.7025 -1.7775,0 -2.97,-1.1025 -2.97,-2.7675 0,-2.7675 1.8675,-4.7025 4.4325,-4.7025 z" />
      <path
         id="path4653"
         style="font-style:italic;font-variant:normal;font-weight:normal;font-stretch:normal;font-size:22.5px;line-height:125%;font-family:'Courier 10 Pitch';-inkscape-font-specification:'Courier 10 Pitch, Italic';text-align:start;writing-mode:lr-tb;text-anchor:start;fill:#001080;fill-opacity:1"
         d="m 77.125781,766.88715 1.3725,0 c 0.6525,0 0.945,-0.27 0.945,-0.8775 0,-0.405 -0.2025,-0.63 -0.6525,-0.63 l -1.0575,0 1.17,-5.4225 c 0.0675,-0.2925 0.09,-0.585 0.09,-0.855 0,-1.5975 -1.125,-2.6325 -3.3525,-2.6325 -2.475,0 -4.4325,0.9 -4.4325,1.7775 0,0.36 0.2925,0.63 0.72,0.63 0.6975,0 1.8675,-0.9225 3.51,-0.9225 1.1925,0 1.8225,0.54 1.8225,1.5975 0,0.225 -0.045,0.6075 -0.18,1.1475 -0.855,-0.2475 -1.665,-0.3825 -2.475,-0.3825 -3.465,0 -5.715,1.7325 -5.715,3.8475 0,1.7325 1.2825,2.925 3.2625,2.925 1.485,0 2.925,-0.675 4.14,-2.025 -0.1125,0.495 -0.18,0.8325 -0.18,1.08 0,0.675 0.27,0.7425 1.0125,0.7425 z m -0.3375,-4.8825 -0.1125,0.6075 c -0.2925,1.53 -2.25,2.88 -4.1625,2.88 -1.1925,0 -1.845,-0.585 -1.845,-1.485 0,-1.2825 1.44,-2.3625 4.005,-2.3625 0.72,0 1.395,0.135 2.115,0.36 z" />
      <path
         id="path4655"
         style="font-style:italic;font-variant:normal;font-weight:normal;font-stretch:normal;font-size:22.5px;line-height:125%;font-family:'Courier 10 Pitch';-inkscape-font-specification:'Courier 10 Pitch, Italic';text-align:start;writing-mode:lr-tb;text-anchor:start;fill:#001080;fill-opacity:1"
         d="m 87.690938,759.07965 0.427499,-1.8225 c 0.0225,-0.0675 0.0225,-0.135 0.0225,-0.2025 0,-0.2475 -0.157501,-0.315 -0.517501,-0.315 l -2.699999,0 c -0.6525,0 -0.990001,0.315 -0.990001,0.8775 0,0.4275 0.225001,0.63 0.6525,0.63 l 1.665001,0 -1.507501,7.1325 -1.62,0 c -0.652499,0 -0.9675,0.315 -0.9675,0.9 0,0.405 0.2025,0.6075 0.6525,0.6075 l 6.9975,0 c 0.652501,0 0.99,-0.315 0.99,-0.8775 0,-0.4275 -0.225,-0.63 -0.652499,-0.63 l -3.802501,0 0.990001,-4.545 c 1.822499,-1.665 3.194999,-2.565 4.455,-2.565 0.855,0 1.192499,0.6975 1.7325,0.6975 0.6075,0 1.147499,-0.5175 1.147499,-1.1475 0,-0.7875 -0.697499,-1.35 -1.957499,-1.35 -1.5975,0 -3.262501,0.855 -5.0175,2.61 z" />
      <path
         id="path4657"
         style=""
         d="m 110.12625,762.61215 9.8325,0 c 0.45,0 0.6975,-0.27 0.6975,-0.81 0,-0.54 -0.2475,-0.81 -0.6975,-0.81 l -9.8325,0 c -0.45,0 -0.6975,0.27 -0.6975,0.81 0,0.54 0.2475,0.81 0.6975,0.81 z m 0,-3.69 9.8325,0 c 0.45,0 0.6975,-0.27 0.6975,-0.81 0,-0.54 -0.2475,-0.81 -0.6975,-0.81 l -9.8325,0 c -0.45,0 -0.6975,0.27 -0.6975,0.81 0,0.54 0.2475,0.81 0.6975,0.81 z" />
      <path
         id="path4659"
         style="fill:#09885a;fill-opacity:1"
         d="m 142.28156,766.66215 3.8925,-11.7675 c 0.135,-0.405 0.225,-0.6975 0.225,-0.9225 l 0,-0.3825 c 0,-0.405 -0.2025,-0.5625 -0.6075,-0.5625 l -7.2675,0 c -0.4275,0 -0.6975,0.225 -0.7425,0.63 l -0.1125,0.99 c -0.0225,0.1125 -0.0225,0.2025 -0.0225,0.2925 0,0.495 0.225,0.7425 0.7425,0.7425 0.5175,0 0.765,-0.3375 0.81,-1.0125 l 5.58,0 -4.32,11.7225 c -0.045,0.135 -0.0675,0.27 -0.0675,0.36 0,0.2025 0.18,0.3375 0.4725,0.3375 l 0.7875,0 c 0.0675,0 0.1125,0 0.18,0 0.2475,0 0.315,-0.0225 0.45,-0.4275 z" />
      <path
         id="path4661"
         style=""
         d="m 153.43172,759.01215 c 0,1.125 0.855,1.9575 2.16,1.9575 1.305,0 2.1825,-0.81 2.1825,-1.9575 0,-1.1475 -0.8775,-1.9575 -2.1825,-1.9575 -1.305,0 -2.16,0.8325 -2.16,1.9575 z m 0.855,5.1975 -1.3275,5.2425 c -0.0225,0.0675 -0.045,0.1575 -0.045,0.27 0,0.1575 0.135,0.315 0.3375,0.3825 l 0.72,0.27 c 0.0675,0.0225 0.135,0.045 0.2025,0.045 0.2025,0 0.36,-0.135 0.4725,-0.36 l 2.835,-5.895 c 0.0675,-0.135 0.09,-0.225 0.09,-0.2925 0,-0.1125 -0.135,-0.225 -0.3375,-0.225 l -2.2725,0 c -0.4725,0 -0.5625,0.135 -0.675,0.5625 z" />
      <path
         id="path4663"
         style=""
         d="m 4.6125,793.21215 c 0,1.125 0.855,1.9575 2.16,1.9575 1.305,0 2.16,-0.81 2.16,-1.9575 0,-1.1475 -0.855,-1.9575 -2.16,-1.9575 -1.305,0 -2.16,0.8325 -2.16,1.9575 z" />
      <path
         id="path4665"
         style=""
         d="m 18.147656,793.21215 c 0,1.125 0.855,1.9575 2.16,1.9575 1.305,0 2.16,-0.81 2.16,-1.9575 0,-1.1475 -0.855,-1.9575 -2.16,-1.9575 -1.305,0 -2.16,0.8325 -2.16,1.9575 z" />
      <path
         id="path4667"
         style=""
         d="m 31.682812,793.21215 c 0,1.125 0.855,1.9575 2.16,1.9575 1.305,0 2.16,-0.81 2.16,-1.9575 0,-1.1475 -0.855,-1.9575 -2.16,-1.9575 -1.305,0 -2.16,0.8325 -2.16,1.9575 z" />
      <path
         id="path4669"
         style="fill:#b000db;fill-opacity:1"
         d="m 10.1475,821.56215 -3.6,0 0,-6.705 3.825,0 c 0.5625,0 0.8775,-0.2925 0.8775,-0.81 0,-0.5175 -0.315,-0.7875 -0.9225,-0.7875 l -3.8475,0 c -0.0225,-0.225 -0.0225,-0.4275 -0.0225,-0.63 0,-1.575 0.6525,-2.25 2.3175,-2.25 0.9675,0 1.71,0.27 2.25,0.27 0.5175,0 0.9,-0.315 0.9,-0.7875 0,-0.7875 -0.81,-1.125 -2.4075,-1.125 -3.3525,0 -4.815,1.1025 -4.815,3.735 0,0.2475 0.0225,0.5175 0.045,0.7875 l -1.755,0 c -0.585,0 -0.8775,0.27 -0.8775,0.7875 0,0.5175 0.2925,0.81 0.9,0.81 l 1.8225,0 0,6.705 -1.8675,0 c -0.5625,0 -0.8775,0.27 -0.8775,0.7875 0,0.5175 0.315,0.7875 0.9225,0.7875 l 7.1775,0 c 0.585,0 0.8775,-0.27 0.8775,-0.7875 0,-0.5175 -0.315,-0.7875 -0.9225,-0.7875 z" />
      <path
         id="path4671"
         style="fill:#b000db;fill-opacity:1"
         d="m 26.045156,818.07465 c 0,-3.0375 -2.25,-5.3325 -5.7375,-5.3325 -3.4875,0 -5.76,2.2725 -5.76,5.3325 0,3.06 2.2725,5.3325 5.76,5.3325 3.4875,0 5.7375,-2.2725 5.7375,-5.3325 z m -5.7375,3.8025 c -2.2725,0 -3.8475,-1.62 -3.8475,-3.8025 0,-2.1825 1.575,-3.825 3.8475,-3.825 2.2725,0 3.8475,1.6425 3.8475,3.825 0,2.205 -1.575,3.8025 -3.8475,3.8025 z" />
      <path
         id="path4673"
         style="fill:#b000db;fill-opacity:1"
         d="m 32.762813,821.58465 0,-4.545 c 1.462499,-1.665 2.699999,-2.5425 3.915,-2.5425 0.854999,0 1.3275,0.675 1.9125,0.675 0.472499,0 0.9675,-0.495 0.9675,-1.035 0,-0.81 -0.81,-1.4175 -2.182501,-1.4175 -1.755,0 -3.24,0.855 -4.612499,2.5875 l 0,-1.8675 c 0,-0.315 -0.2025,-0.45 -0.607501,-0.45 l -2.4975,0 c -0.584999,0 -0.8775,0.2475 -0.8775,0.765 0,0.5625 0.315,0.7875 1.035,0.7875 0.112501,0 0.315,0 0.5625,0 l 0.7425,0 0,7.0425 -1.935,0 c -0.6075,0 -0.9225,0.2475 -0.9225,0.765 0,0.5175 0.315,0.7875 0.9,0.7875 l 7.177501,0 c 0.652499,0 0.9,-0.1575 0.9,-0.7875 0,-0.54 -0.270001,-0.765 -0.832501,-0.765 l -3.644999,0 z" />
      <path
         id="path4675"
         style=""
         d="m 63.140625,810.22215 c 0,-0.315 -0.18,-0.495 -0.4275,-0.495 -0.5175,0 -1.2375,0.6975 -2.0925,2.0925 -1.305,2.115 -1.935,4.3425 -1.935,6.8175 0,2.475 0.63,4.7025 1.935,6.8175 0.855,1.395 1.575,2.0925 2.0925,2.0925 0.2475,0 0.4275,-0.2025 0.4275,-0.5175 0,-0.4275 -0.6075,-1.3275 -1.2375,-2.925 -0.6975,-1.8 -1.0575,-3.5325 -1.0575,-5.4675 0,-2.475 0.585,-4.3425 1.3725,-6.21 0.4725,-1.125 0.9225,-1.8225 0.9225,-2.205 z" />
      <path
         id="path4677"
         style="fill:#0000ff"
         d="m 73.705781,810.33465 0,11.25 -3.0375,0 c -0.6075,0 -0.9225,0.2475 -0.9225,0.765 0,0.5175 0.2925,0.7875 0.8775,0.7875 l 8.1,0 c 0.6525,0 0.9,-0.1575 0.9,-0.7875 0,-0.54 -0.27,-0.765 -0.8325,-0.765 l -3.42,0 0,-12.375 c 0,-0.27 -0.2025,-0.45 -0.63,-0.45 l -3.6225,0 c -0.585,0 -0.8775,0.27 -0.8775,0.7875 0,0.5625 0.315,0.765 1.035,0.765 0.1125,0 0.315,0.0225 0.5625,0.0225 l 1.8675,0 z" />
      <path
         id="path4679"
         style="fill:#0000ff"
         d="m 84.315938,817.10715 c 0.427499,-1.8225 1.845,-2.9025 3.78,-2.9025 1.777499,0 3.1725,1.1475 3.375,2.9025 l -7.155,0 z m -0.045,1.44 7.379999,0 c 1.350001,0 1.822501,0 1.822501,-1.035 0,-2.4525 -2.0475,-4.815 -5.3775,-4.815 -3.397501,0 -5.737501,2.1825 -5.737501,5.3325 0,3.285 2.115001,5.3775 5.5125,5.3775 1.485,0 3.082501,-0.36 4.59,-1.1025 0.652501,-0.315 0.9675,-0.6525 0.9675,-1.1025 0,-0.405 -0.3375,-0.72 -0.765,-0.72 -0.989999,0 -2.407499,1.3725 -4.635,1.3725 -2.272499,0 -3.645,-1.1925 -3.757499,-3.3075 z" />
      <path
         id="path4681"
         style="fill:#0000ff"
         d="m 104.51109,813.59715 -4.32,0 0,-2.2275 c 0,-1.08 -0.09,-1.53 -0.877496,-1.53 -0.585,0 -0.855,0.315 -0.855,0.9225 0,0.2925 0,0.495 0,0.585 l 0,2.25 -1.215,0 c -1.0575,0 -1.5075,0.0675 -1.5075,0.7875 0,0.54 0.27,0.765 0.8775,0.765 l 1.845,0 0,3.6675 c 0,0.1125 0,0.225 0,0.3375 0,1.0125 0.0225,1.89 0.405,2.5425 0.63,1.1025 1.799996,1.6425 3.487496,1.6425 1.035,0 2.1825,-0.2925 3.555,-0.8325 0.81,-0.315 1.215,-0.63 1.215,-1.1475 0,-0.405 -0.36,-0.7875 -0.765,-0.7875 -0.8775,0 -2.34,1.17 -4.1175,1.17 -1.935,0 -2.07,-1.17 -2.07,-2.925 l 0,-3.6675 4.455,0 c 0.6075,0 0.9225,-0.2475 0.9225,-0.765 0,-0.5625 -0.3375,-0.7875 -1.035,-0.7875 z" />
      <path
         id="path4683"
         style="font-style:italic;font-variant:normal;font-weight:normal;font-stretch:normal;font-size:22.5px;line-height:125%;font-family:'Courier 10 Pitch';-inkscape-font-specification:'Courier 10 Pitch, Italic';text-align:start;writing-mode:lr-tb;text-anchor:start;fill:#001080;fill-opacity:1"
         d="m 128.99391,821.62965 1.7325,-8.1225 c 0.0225,-0.09 0.0225,-0.1575 0.0225,-0.2025 0,-0.2475 -0.1575,-0.315 -0.495,-0.315 l -3.2625,0 c -0.6525,0 -0.99,0.315 -0.99,0.8775 0,0.4275 0.2475,0.63 0.675,0.63 l 2.205,0 -1.5075,7.1325 -3.3075,0 c -0.6525,0 -0.9675,0.315 -0.9675,0.9 0,0.405 0.2025,0.6075 0.6525,0.6075 l 8.3925,0 c 0.6525,0 1.0125,-0.315 1.0125,-0.8775 0,-0.4275 -0.2475,-0.63 -0.675,-0.63 l -3.4875,0 z m 2.07,-13.5675 c -0.9675,0 -1.5525,0.4275 -1.5525,2.1375 0,0.495 0.2025,0.6975 0.81,0.6975 0.9675,0 1.53,-0.45 1.53,-2.1375 0,-0.495 -0.18,-0.6975 -0.7875,-0.6975 z" />
      <path
         id="path4685"
         style=""
         d="m 150.73172,818.86215 9.8325,0 c 0.45,0 0.6975,-0.27 0.6975,-0.81 0,-0.54 -0.2475,-0.81 -0.6975,-0.81 l -9.8325,0 c -0.45,0 -0.6975,0.27 -0.6975,0.81 0,0.54 0.2475,0.81 0.6975,0.81 z m 0,-3.69 9.8325,0 c 0.45,0 0.6975,-0.27 0.6975,-0.81 0,-0.54 -0.2475,-0.81 -0.6975,-0.81 l -9.8325,0 c -0.45,0 -0.6975,0.27 -0.6975,0.81 0,0.54 0.2475,0.81 0.6975,0.81 z" />
      <path
         id="path4687"
         style="fill:#09885a;fill-opacity:1"
         d="m 182.72953,823.49715 c 2.6775,0 4.5,-2.6325 4.5,-7.29 0,-4.6575 -1.8225,-7.29 -4.5,-7.29 -2.6775,0 -4.5,2.6325 -4.5,7.29 0,4.6575 1.8225,7.29 4.5,7.29 z m 0,-13.005 c 1.62,0 2.655,1.935 2.655,5.715 0,3.78 -1.035,5.7375 -2.655,5.7375 -1.62,0 -2.6775,-1.9575 -2.6775,-5.7375 0,-3.78 1.0575,-5.715 2.6775,-5.715 z" />
      <path
         id="path4689"
         style=""
         d="m 194.03719,815.26215 c 0,1.125 0.855,1.9575 2.16,1.9575 1.305,0 2.1825,-0.81 2.1825,-1.9575 0,-1.1475 -0.8775,-1.9575 -2.1825,-1.9575 -1.305,0 -2.16,0.8325 -2.16,1.9575 z m 0.855,5.1975 -1.3275,5.2425 c -0.0225,0.0675 -0.045,0.1575 -0.045,0.27 0,0.1575 0.135,0.315 0.3375,0.3825 l 0.72,0.27 c 0.0675,0.0225 0.135,0.045 0.2025,0.045 0.2025,0 0.36,-0.135 0.4725,-0.36 l 2.835,-5.895 c 0.0675,-0.135 0.09,-0.225 0.09,-0.2925 0,-0.1125 -0.135,-0.225 -0.3375,-0.225 l -2.2725,0 c -0.4725,0 -0.5625,0.135 -0.675,0.5625 z" />
      <path
         id="path4691"
         style="font-style:italic;font-variant:normal;font-weight:normal;font-stretch:normal;font-size:22.5px;line-height:125%;font-family:'Courier 10 Pitch';-inkscape-font-specification:'Courier 10 Pitch, Italic';text-align:start;writing-mode:lr-tb;text-anchor:start;fill:#001080;fill-opacity:1"
         d="m 223.74,821.62965 1.7325,-8.1225 c 0.0225,-0.09 0.0225,-0.1575 0.0225,-0.2025 0,-0.2475 -0.1575,-0.315 -0.495,-0.315 l -3.2625,0 c -0.6525,0 -0.99,0.315 -0.99,0.8775 0,0.4275 0.2475,0.63 0.675,0.63 l 2.205,0 -1.5075,7.1325 -3.3075,0 c -0.6525,0 -0.9675,0.315 -0.9675,0.9 0,0.405 0.2025,0.6075 0.6525,0.6075 l 8.3925,0 c 0.6525,0 1.0125,-0.315 1.0125,-0.8775 0,-0.4275 -0.2475,-0.63 -0.675,-0.63 l -3.4875,0 z m 2.07,-13.5675 c -0.9675,0 -1.5525,0.4275 -1.5525,2.1375 0,0.495 0.2025,0.6975 0.81,0.6975 0.9675,0 1.53,-0.45 1.53,-2.1375 0,-0.495 -0.18,-0.6975 -0.7875,-0.6975 z" />
      <path
         id="path4693"
         style=""
         d="m 245.52281,815.12715 c -0.7425,0.3375 -1.125,0.4725 -1.125,1.0575 0,0.585 0.4275,0.7425 1.125,1.0575 l 8.73,4.0725 c 0.36,0.1575 0.6075,0.27 0.8775,0.27 0.45,0 0.72,-0.27 0.72,-0.6975 0,-0.45 -0.315,-0.72 -0.9,-0.99 l -7.7625,-3.69 7.7625,-3.69 c 0.585,-0.27 0.9,-0.5175 0.9,-0.9675 0,-0.4275 -0.27,-0.6975 -0.72,-0.6975 -0.2475,0 -0.5175,0.09 -0.8775,0.27 l -8.73,4.005 z" />
      <path
         id="path4695"
         style="fill:#09885a;fill-opacity:1"
         d="m 275.00063,814.54215 0,-3.555 4.97249,0 c 0.675,0 1.0575,-0.315 1.0575,-0.855 0,-0.5625 -0.3375,-0.855 -1.0575,-0.855 l -5.5575,0 c -0.6975,0 -1.0125,0.1575 -1.0125,0.675 l 0,5.4675 c 0,0.6975 0.0675,1.125 0.6075,1.125 0.6525,0 1.3725,-0.99 3.0825,-0.99 1.755,0 3.06,1.3725 3.06,3.1725 0,1.8225 -1.305,3.1725 -3.3075,3.1725 -1.71,0 -2.925,-0.855 -3.465,-0.855 -0.4275,0 -0.76499,0.36 -0.76499,0.7425 0,0.9 1.755,1.71 4.34249,1.71 2.9925,0 5.04001,-2.0925 5.04001,-4.8375 0,-2.61 -1.86751,-4.635 -4.47751,-4.635 -0.765,0 -1.59749,0.18 -2.51999,0.5175 z" />
      <path
         id="path4697"
         style=""
         d="m 288.78328,815.26215 c 0,1.125 0.855,1.9575 2.16,1.9575 1.305,0 2.1825,-0.81 2.1825,-1.9575 0,-1.1475 -0.8775,-1.9575 -2.1825,-1.9575 -1.305,0 -2.16,0.8325 -2.16,1.9575 z m 0.855,5.1975 -1.3275,5.2425 c -0.0225,0.0675 -0.045,0.1575 -0.045,0.27 0,0.1575 0.135,0.315 0.3375,0.3825 l 0.72,0.27 c 0.0675,0.0225 0.135,0.045 0.2025,0.045 0.2025,0 0.36,-0.135 0.4725,-0.36 l 2.835,-5.895 c 0.0675,-0.135 0.09,-0.225 0.09,-0.2925 0,-0.1125 -0.135,-0.225 -0.3375,-0.225 l -2.2725,0 c -0.4725,0 -0.5625,0.135 -0.675,0.5625 z" />
      <path
         id="path4699"
         style="font-style:italic;font-variant:normal;font-weight:normal;font-stretch:normal;font-size:22.5px;line-height:125%;font-family:'Courier 10 Pitch';-inkscape-font-specification:'Courier 10 Pitch, Italic';text-align:start;writing-mode:lr-tb;text-anchor:start;fill:#001080;fill-opacity:1"
         d="m 318.48609,821.62965 1.7325,-8.1225 c 0.0225,-0.09 0.0225,-0.1575 0.0225,-0.2025 0,-0.2475 -0.1575,-0.315 -0.495,-0.315 l -3.2625,0 c -0.6525,0 -0.99,0.315 -0.99,0.8775 0,0.4275 0.2475,0.63 0.675,0.63 l 2.205,0 -1.5075,7.1325 -3.3075,0 c -0.6525,0 -0.9675,0.315 -0.9675,0.9 0,0.405 0.2025,0.6075 0.6525,0.6075 l 8.3925,0 c 0.6525,0 1.0125,-0.315 1.0125,-0.8775 0,-0.4275 -0.2475,-0.63 -0.675,-0.63 l -3.4875,0 z m 2.07,-13.5675 c -0.9675,0 -1.5525,0.4275 -1.5525,2.1375 0,0.495 0.2025,0.6975 0.81,0.6975 0.9675,0 1.53,-0.45 1.53,-2.1375 0,-0.495 -0.18,-0.6975 -0.7875,-0.6975 z" />
      <path
         id="path4701"
         style=""
         d="m 336.40875,815.41965 -3.9825,0 0,-4.14 c 0,-0.5175 -0.315,-0.8775 -0.81,-0.8775 -0.495,0 -0.8325,0.36 -0.8325,0.8775 l 0,4.14 -3.96,0 c -0.4725,0 -0.8775,0.36 -0.8775,0.81 0,0.4725 0.36,0.7875 0.8775,0.7875 l 3.96,0 0,4.1175 c 0,0.4725 0.3825,0.8775 0.8325,0.8775 0.495,0 0.81,-0.36 0.81,-0.8775 l 0,-4.1175 3.9825,0 c 0.5175,0 0.8775,-0.315 0.8775,-0.7875 0,-0.495 -0.36,-0.81 -0.8775,-0.81 z" />
      <path
         id="path4703"
         style=""
         d="m 349.94391,815.41965 -3.9825,0 0,-4.14 c 0,-0.5175 -0.315,-0.8775 -0.81,-0.8775 -0.495,0 -0.8325,0.36 -0.8325,0.8775 l 0,4.14 -3.96,0 c -0.4725,0 -0.8775,0.36 -0.8775,0.81 0,0.4725 0.36,0.7875 0.8775,0.7875 l 3.96,0 0,4.1175 c 0,0.4725 0.3825,0.8775 0.8325,0.8775 0.495,0 0.81,-0.36 0.81,-0.8775 l 0,-4.1175 3.9825,0 c 0.5175,0 0.8775,-0.315 0.8775,-0.7875 0,-0.495 -0.36,-0.81 -0.8775,-0.81 z" />
      <path
         id="path4705"
         style=""
         d="m 356.43656,827.02965 c 0,0.315 0.18,0.5175 0.4275,0.5175 0.5175,0 1.2375,-0.6975 2.0925,-2.0925 1.305,-2.115 1.9575,-4.3425 1.9575,-6.8175 0,-2.475 -0.6525,-4.7025 -1.9575,-6.8175 -0.855,-1.395 -1.575,-2.0925 -2.0925,-2.0925 -0.2475,0 -0.4275,0.18 -0.4275,0.495 0,0.4275 0.6075,1.3275 1.2375,2.925 0.6975,1.8 1.0575,3.555 1.0575,5.49 0,2.475 -0.5625,4.3425 -1.35,6.21 -0.4725,1.125 -0.945,1.8 -0.945,2.1825 z" />
      <path
         id="path4707"
         style=""
         d="m 387.01688,813.93465 c 0,-1.26 0.11249,-1.935 1.23749,-2.1375 0.6075,-0.1125 1.2375,-0.0225 1.2375,-0.855 0,-0.54 -0.33749,-0.8775 -0.8325,-0.8775 -2.97,0 -3.4875,1.485 -3.4875,4.4325 l 0,0.6975 c 0,2.475 -0.96749,2.295 -2.295,2.6325 -0.45,0.1125 -0.675,0.3375 -0.675,0.8325 0,0.54 0.20251,0.7875 0.81,0.9 1.44,0.2475 2.16,0.405 2.16,2.5875 l 0,0.6975 c 0,2.9025 0.54001,4.41 3.375,4.41 0.63,0 0.945,-0.315 0.945,-0.8775 0,-0.9 -0.765,-0.7425 -1.3725,-0.9 -1.03499,-0.2475 -1.10249,-0.81 -1.10249,-2.07 l 0,-1.035 c 0,-2.07 -0.31501,-3.195 -2.00251,-3.7125 1.6875,-0.495 2.00251,-1.5975 2.00251,-3.69 l 0,-1.035 z" />
      <path
         id="path4709"
         style="fill:#0000ff"
         d="m 60.170625,838.45965 0,11.25 -3.0375,0 c -0.6075,0 -0.9225,0.2475 -0.9225,0.765 0,0.5175 0.2925,0.7875 0.8775,0.7875 l 8.1,0 c 0.6525,0 0.9,-0.1575 0.9,-0.7875 0,-0.54 -0.27,-0.765 -0.8325,-0.765 l -3.42,0 0,-12.375 c 0,-0.27 -0.2025,-0.45 -0.63,-0.45 l -3.6225,0 c -0.585,0 -0.8775,0.27 -0.8775,0.7875 0,0.5625 0.315,0.765 1.035,0.765 0.1125,0 0.315,0.0225 0.5625,0.0225 l 1.8675,0 z" />
      <path
         id="path4711"
         style="fill:#0000ff"
         d="m 70.780781,845.23215 c 0.4275,-1.8225 1.845,-2.9025 3.78,-2.9025 1.7775,0 3.1725,1.1475 3.375,2.9025 l -7.155,0 z m -0.045,1.44 7.38,0 c 1.35,0 1.8225,0 1.8225,-1.035 0,-2.4525 -2.0475,-4.815 -5.3775,-4.815 -3.3975,0 -5.7375,2.1825 -5.7375,5.3325 0,3.285 2.115,5.3775 5.5125,5.3775 1.485,0 3.0825,-0.36 4.59,-1.1025 0.6525,-0.315 0.9675,-0.6525 0.9675,-1.1025 0,-0.405 -0.3375,-0.72 -0.765,-0.72 -0.99,0 -2.4075,1.3725 -4.635,1.3725 -2.2725,0 -3.645,-1.1925 -3.7575,-3.3075 z" />
      <path
         id="path4713"
         style="fill:#0000ff"
         d="m 90.975937,841.72215 -4.32,0 0,-2.2275 c 0,-1.08 -0.09,-1.53 -0.8775,-1.53 -0.584999,0 -0.854999,0.315 -0.854999,0.9225 0,0.2925 0,0.495 0,0.585 l 0,2.25 -1.215,0 c -1.057501,0 -1.507501,0.0675 -1.507501,0.7875 0,0.54 0.270001,0.765 0.877501,0.765 l 1.845,0 0,3.6675 c 0,0.1125 0,0.225 0,0.3375 0,1.0125 0.0225,1.89 0.405,2.5425 0.63,1.1025 1.8,1.6425 3.4875,1.6425 1.034999,0 2.182499,-0.2925 3.554999,-0.8325 0.81,-0.315 1.215,-0.63 1.215,-1.1475 0,-0.405 -0.36,-0.7875 -0.765,-0.7875 -0.877499,0 -2.34,1.17 -4.117499,1.17 -1.935,0 -2.070001,-1.17 -2.070001,-2.925 l 0,-3.6675 4.455,0 c 0.6075,0 0.9225,-0.2475 0.9225,-0.765 0,-0.5625 -0.337499,-0.7875 -1.035,-0.7875 z" />
      <path
         id="path4715"
         style="fill:#001080;fill-opacity:1"
         d="m 117.95625,854.07465 -2.6325,0 c -0.5625,0 -0.855,0.27 -0.855,0.7875 0,0.6075 0.27,0.7875 0.9225,0.7875 l 4.86,0 c 0.585,0 0.8775,-0.27 0.8775,-0.7875 0,-0.5625 -0.3375,-0.7875 -1.035,-0.7875 -0.1575,0 -0.315,0 -0.4725,0 l 0,-11.4075 c 0.0675,0 0.135,0 0.2025,0 0.9225,0 1.305,-0.1575 1.305,-0.7875 0,-0.5175 -0.2925,-0.765 -0.8775,-0.765 l -1.665,0 c -0.4275,0 -0.63,0.135 -0.63,0.45 l 0,1.0575 c -0.99,-1.0125 -2.205,-1.53 -3.6,-1.53 -2.88,0 -5.1975,2.16 -5.1975,5.2425 0,2.925 2.115,4.95 4.995,4.95 1.5525,0 2.9025,-0.5625 3.8025,-1.5975 l 0,4.3875 z m -6.885,-7.8525 c 0,-1.98 1.395,-3.4425 3.465,-3.4425 2.0475,0 3.465,1.4625 3.465,3.4425 0,1.98 -1.4175,3.4425 -3.465,3.4425 -2.025,0 -3.465,-1.395 -3.465,-3.4425 z" />
      <path
         id="path4717"
         style=""
         d="m 137.19656,846.98715 9.8325,0 c 0.45,0 0.6975,-0.27 0.6975,-0.81 0,-0.54 -0.2475,-0.81 -0.6975,-0.81 l -9.8325,0 c -0.45,0 -0.6975,0.27 -0.6975,0.81 0,0.54 0.2475,0.81 0.6975,0.81 z m 0,-3.69 9.8325,0 c 0.45,0 0.6975,-0.27 0.6975,-0.81 0,-0.54 -0.2475,-0.81 -0.6975,-0.81 l -9.8325,0 c -0.45,0 -0.6975,0.27 -0.6975,0.81 0,0.54 0.2475,0.81 0.6975,0.81 z" />
      <path
         id="path4719"
         style="fill:#001080;fill-opacity:1"
         d="m 172.56937,849.68715 -3.59999,0 0,-6.705 3.82499,0 c 0.5625,0 0.8775,-0.2925 0.8775,-0.81 0,-0.5175 -0.315,-0.7875 -0.9225,-0.7875 l -3.8475,0 c -0.0225,-0.225 -0.0225,-0.4275 -0.0225,-0.63 0,-1.575 0.65251,-2.25 2.3175,-2.25 0.9675,0 1.71001,0.27 2.25,0.27 0.5175,0 0.9,-0.315 0.9,-0.7875 0,-0.7875 -0.81,-1.125 -2.4075,-1.125 -3.3525,0 -4.815,1.1025 -4.815,3.735 0,0.2475 0.0225,0.5175 0.045,0.7875 l -1.755,0 c -0.585,0 -0.8775,0.27 -0.8775,0.7875 0,0.5175 0.2925,0.81 0.9,0.81 l 1.8225,0 0,6.705 -1.8675,0 c -0.5625,0 -0.8775,0.27 -0.8775,0.7875 0,0.5175 0.315,0.7875 0.9225,0.7875 l 7.1775,0 c 0.585,0 0.8775,-0.27 0.8775,-0.7875 0,-0.5175 -0.315,-0.7875 -0.9225,-0.7875 z" />
      <path
         id="path4721"
         style="fill:#001080;fill-opacity:1"
         d="m 188.46703,846.19965 c 0,-3.0375 -2.25,-5.3325 -5.7375,-5.3325 -3.4875,0 -5.76,2.2725 -5.76,5.3325 0,3.06 2.2725,5.3325 5.76,5.3325 3.4875,0 5.7375,-2.2725 5.7375,-5.3325 z m -5.7375,3.8025 c -2.2725,0 -3.8475,-1.62 -3.8475,-3.8025 0,-2.1825 1.575,-3.825 3.8475,-3.825 2.2725,0 3.8475,1.6425 3.8475,3.825 0,2.205 -1.575,3.8025 -3.8475,3.8025 z" />
      <path
         id="path4723"
         style="fill:#001080;fill-opacity:1"
         d="m 202.00219,846.19965 c 0,-3.0375 -2.25,-5.3325 -5.7375,-5.3325 -3.4875,0 -5.76,2.2725 -5.76,5.3325 0,3.06 2.2725,5.3325 5.76,5.3325 3.4875,0 5.7375,-2.2725 5.7375,-5.3325 z m -5.7375,3.8025 c -2.2725,0 -3.8475,-1.62 -3.8475,-3.8025 0,-2.1825 1.575,-3.825 3.8475,-3.825 2.2725,0 3.8475,1.6425 3.8475,3.825 0,2.205 -1.575,3.8025 -3.8475,3.8025 z" />
      <path
         id="path4725"
         style=""
         d="m 223.965,841.83465 0.27,-3.15 c 0,-0.045 0,-0.09 0,-0.135 0,-0.27 -0.1125,-0.315 -0.4725,-0.315 l -0.8775,0 c -0.36,0 -0.4725,0.045 -0.4725,0.315 0,0.045 0,0.09 0,0.135 l 0.2925,3.15 -2.9025,-1.26 c -0.1125,-0.045 -0.2025,-0.045 -0.27,-0.045 -0.135,0 -0.2025,0.1125 -0.2925,0.3825 l -0.2925,0.8325 c -0.045,0.1575 -0.0675,0.2925 -0.0675,0.3375 0,0.1125 0.135,0.2025 0.36,0.2475 l 3.06,0.6975 -2.07,2.385 c -0.1125,0.1125 -0.1575,0.2025 -0.1575,0.315 0,0.0675 0.09,0.18 0.2925,0.315 l 0.6975,0.5175 c 0.18,0.135 0.2925,0.18 0.3375,0.18 0.09,0 0.2025,-0.09 0.2925,-0.2475 l 1.6425,-2.7225 1.62,2.7225 c 0.09,0.18 0.18,0.2475 0.2925,0.2475 0.0675,0 0.1575,-0.0675 0.3375,-0.18 l 0.72,-0.5175 c 0.2025,-0.135 0.27,-0.2475 0.27,-0.315 0,-0.1125 -0.0675,-0.2025 -0.1575,-0.315 l -2.07,-2.385 3.0825,-0.6975 c 0.225,-0.045 0.3375,-0.135 0.3375,-0.27 0,-0.045 -0.0225,-0.135 -0.0675,-0.315 l -0.27,-0.8325 c -0.09,-0.27 -0.135,-0.3825 -0.2925,-0.3825 -0.045,0 -0.1575,0.0225 -0.27,0.0675 l -2.9025,1.2375 z" />
      <path
         id="path4727"
         style="font-style:italic;font-variant:normal;font-weight:normal;font-stretch:normal;font-size:22.5px;line-height:125%;font-family:'Courier 10 Pitch';-inkscape-font-specification:'Courier 10 Pitch, Italic';text-align:start;writing-mode:lr-tb;text-anchor:start;fill:#001080;fill-opacity:1"
         d="m 248.13281,842.68965 1.1475,-5.265 c 0.0225,-0.0675 0.0225,-0.135 0.0225,-0.2025 0,-0.2475 -0.1575,-0.3375 -0.5175,-0.3375 l -1.7325,0 c -0.6525,0 -0.99,0.315 -0.99,0.8775 0,0.4275 0.225,0.63 0.6525,0.63 l 0.6975,0 -2.385,11.3625 -0.63,0 c -0.6525,0 -0.9675,0.315 -0.9675,0.9 0,0.405 0.2025,0.6075 0.6525,0.6075 l 1.4175,0 c 0.585,0 0.8775,-0.2025 0.99,-0.7425 l 0.135,-0.6525 c 0.7425,1.125 1.9125,1.6875 3.5775,1.6875 3.33,0 6.0525,-2.7 6.0525,-6.1425 0,-2.6325 -1.6875,-4.2975 -4.23,-4.2975 -1.395,0 -2.7,0.5175 -3.8925,1.575 z m 3.5775,-0.09 c 1.5975,0 2.7225,1.0575 2.7225,2.7675 0,2.745 -1.8225,4.7025 -4.185,4.7025 -1.7775,0 -2.97,-1.1025 -2.97,-2.7675 0,-2.7675 1.8675,-4.7025 4.4325,-4.7025 z" />
      <path
         id="path4729"
         style="font-style:italic;font-variant:normal;font-weight:normal;font-stretch:normal;font-size:22.5px;line-height:125%;font-family:'Courier 10 Pitch';-inkscape-font-specification:'Courier 10 Pitch, Italic';text-align:start;writing-mode:lr-tb;text-anchor:start;fill:#001080;fill-opacity:1"
         d="m 266.61797,851.26215 1.3725,0 c 0.6525,0 0.945,-0.27 0.945,-0.8775 0,-0.405 -0.2025,-0.63 -0.6525,-0.63 l -1.0575,0 1.17,-5.4225 c 0.0675,-0.2925 0.09,-0.585 0.09,-0.855 0,-1.5975 -1.125,-2.6325 -3.3525,-2.6325 -2.475,0 -4.4325,0.9 -4.4325,1.7775 0,0.36 0.2925,0.63 0.72,0.63 0.6975,0 1.8675,-0.9225 3.51,-0.9225 1.1925,0 1.8225,0.54 1.8225,1.5975 0,0.225 -0.045,0.6075 -0.18,1.1475 -0.855,-0.2475 -1.665,-0.3825 -2.475,-0.3825 -3.465,0 -5.715,1.7325 -5.715,3.8475 0,1.7325 1.2825,2.925 3.2625,2.925 1.485,0 2.925,-0.675 4.14,-2.025 -0.1125,0.495 -0.18,0.8325 -0.18,1.08 0,0.675 0.27,0.7425 1.0125,0.7425 z m -0.3375,-4.8825 -0.1125,0.6075 c -0.2925,1.53 -2.25,2.88 -4.1625,2.88 -1.1925,0 -1.845,-0.585 -1.845,-1.485 0,-1.2825 1.44,-2.3625 4.005,-2.3625 0.72,0 1.395,0.135 2.115,0.36 z" />
      <path
         id="path4731"
         style="font-style:italic;font-variant:normal;font-weight:normal;font-stretch:normal;font-size:22.5px;line-height:125%;font-family:'Courier 10 Pitch';-inkscape-font-specification:'Courier 10 Pitch, Italic';text-align:start;writing-mode:lr-tb;text-anchor:start;fill:#001080;fill-opacity:1"
         d="m 277.18313,843.45465 0.4275,-1.8225 c 0.0225,-0.0675 0.0225,-0.135 0.0225,-0.2025 0,-0.2475 -0.1575,-0.315 -0.51749,-0.315 l -2.70001,0 c -0.6525,0 -0.98999,0.315 -0.98999,0.8775 0,0.4275 0.22499,0.63 0.65249,0.63 l 1.66501,0 -1.5075,7.1325 -1.62,0 c -0.65251,0 -0.96751,0.315 -0.96751,0.9 0,0.405 0.2025,0.6075 0.65251,0.6075 l 6.9975,0 c 0.65249,0 0.98999,-0.315 0.98999,-0.8775 0,-0.4275 -0.22499,-0.63 -0.6525,-0.63 l -3.8025,0 0.99,-4.545 c 1.8225,-1.665 3.195,-2.565 4.455,-2.565 0.855,0 1.1925,0.6975 1.7325,0.6975 0.60751,0 1.1475,-0.5175 1.1475,-1.1475 0,-0.7875 -0.6975,-1.35 -1.9575,-1.35 -1.5975,0 -3.26249,0.855 -5.01749,2.61 z" />
      <path
         id="path4733"
         style=""
         d="m 288.78328,843.38715 c 0,1.125 0.855,1.9575 2.16,1.9575 1.305,0 2.1825,-0.81 2.1825,-1.9575 0,-1.1475 -0.8775,-1.9575 -2.1825,-1.9575 -1.305,0 -2.16,0.8325 -2.16,1.9575 z m 0.855,5.1975 -1.3275,5.2425 c -0.0225,0.0675 -0.045,0.1575 -0.045,0.27 0,0.1575 0.135,0.315 0.3375,0.3825 l 0.72,0.27 c 0.0675,0.0225 0.135,0.045 0.2025,0.045 0.2025,0 0.36,-0.135 0.4725,-0.36 l 2.835,-5.895 c 0.0675,-0.135 0.09,-0.225 0.09,-0.2925 0,-0.1125 -0.135,-0.225 -0.3375,-0.225 l -2.2725,0 c -0.4725,0 -0.5625,0.135 -0.675,0.5625 z" />
      <path
         id="path4735"
         style="font-style:italic;font-variant:normal;font-weight:normal;font-stretch:normal;font-size:22.5px;line-height:125%;font-family:'Courier 10 Pitch';-inkscape-font-specification:'Courier 10 Pitch, Italic';text-align:start;writing-mode:lr-tb;text-anchor:start;fill:#001080;fill-opacity:1"
         d="m 58.640625,870.81465 1.1475,-5.265 c 0.0225,-0.0675 0.0225,-0.135 0.0225,-0.2025 0,-0.2475 -0.1575,-0.3375 -0.5175,-0.3375 l -1.7325,0 c -0.6525,0 -0.99,0.315 -0.99,0.8775 0,0.4275 0.225,0.63 0.6525,0.63 l 0.6975,0 -2.385,11.3625 -0.63,0 c -0.6525,0 -0.9675,0.315 -0.9675,0.9 0,0.405 0.2025,0.6075 0.6525,0.6075 l 1.4175,0 c 0.585,0 0.8775,-0.2025 0.99,-0.7425 l 0.135,-0.6525 c 0.7425,1.125 1.9125,1.6875 3.5775,1.6875 3.33,0 6.0525,-2.7 6.0525,-6.1425 0,-2.6325 -1.6875,-4.2975 -4.23,-4.2975 -1.395,0 -2.7,0.5175 -3.8925,1.575 z m 3.5775,-0.09 c 1.5975,0 2.7225,1.0575 2.7225,2.7675 0,2.745 -1.8225,4.7025 -4.185,4.7025 -1.7775,0 -2.97,-1.1025 -2.97,-2.7675 0,-2.7675 1.8675,-4.7025 4.4325,-4.7025 z" />
      <path
         id="path4737"
         style="font-style:italic;font-variant:normal;font-weight:normal;font-stretch:normal;font-size:22.5px;line-height:125%;font-family:'Courier 10 Pitch';-inkscape-font-specification:'Courier 10 Pitch, Italic';text-align:start;writing-mode:lr-tb;text-anchor:start;fill:#001080;fill-opacity:1"
         d="m 77.125781,879.38715 1.3725,0 c 0.6525,0 0.945,-0.27 0.945,-0.8775 0,-0.405 -0.2025,-0.63 -0.6525,-0.63 l -1.0575,0 1.17,-5.4225 c 0.0675,-0.2925 0.09,-0.585 0.09,-0.855 0,-1.5975 -1.125,-2.6325 -3.3525,-2.6325 -2.475,0 -4.4325,0.9 -4.4325,1.7775 0,0.36 0.2925,0.63 0.72,0.63 0.6975,0 1.8675,-0.9225 3.51,-0.9225 1.1925,0 1.8225,0.54 1.8225,1.5975 0,0.225 -0.045,0.6075 -0.18,1.1475 -0.855,-0.2475 -1.665,-0.3825 -2.475,-0.3825 -3.465,0 -5.715,1.7325 -5.715,3.8475 0,1.7325 1.2825,2.925 3.2625,2.925 1.485,0 2.925,-0.675 4.14,-2.025 -0.1125,0.495 -0.18,0.8325 -0.18,1.08 0,0.675 0.27,0.7425 1.0125,0.7425 z m -0.3375,-4.8825 -0.1125,0.6075 c -0.2925,1.53 -2.25,2.88 -4.1625,2.88 -1.1925,0 -1.845,-0.585 -1.845,-1.485 0,-1.2825 1.44,-2.3625 4.005,-2.3625 0.72,0 1.395,0.135 2.115,0.36 z" />
      <path
         id="path4739"
         style="font-style:italic;font-variant:normal;font-weight:normal;font-stretch:normal;font-size:22.5px;line-height:125%;font-family:'Courier 10 Pitch';-inkscape-font-specification:'Courier 10 Pitch, Italic';text-align:start;writing-mode:lr-tb;text-anchor:start;fill:#001080;fill-opacity:1"
         d="m 87.690938,871.57965 0.427499,-1.8225 c 0.0225,-0.0675 0.0225,-0.135 0.0225,-0.2025 0,-0.2475 -0.157501,-0.315 -0.517501,-0.315 l -2.699999,0 c -0.6525,0 -0.990001,0.315 -0.990001,0.8775 0,0.4275 0.225001,0.63 0.6525,0.63 l 1.665001,0 -1.507501,7.1325 -1.62,0 c -0.652499,0 -0.9675,0.315 -0.9675,0.9 0,0.405 0.2025,0.6075 0.6525,0.6075 l 6.9975,0 c 0.652501,0 0.99,-0.315 0.99,-0.8775 0,-0.4275 -0.225,-0.63 -0.652499,-0.63 l -3.802501,0 0.990001,-4.545 c 1.822499,-1.665 3.194999,-2.565 4.455,-2.565 0.855,0 1.192499,0.6975 1.7325,0.6975 0.6075,0 1.147499,-0.5175 1.147499,-1.1475 0,-0.7875 -0.697499,-1.35 -1.957499,-1.35 -1.5975,0 -3.262501,0.855 -5.0175,2.61 z" />
      <path
         id="path4741"
         style=""
         d="m 106.31109,871.66965 -3.9825,0 0,-4.14 c 0,-0.5175 -0.315,-0.8775 -0.81,-0.8775 -0.495,0 -0.8325,0.36 -0.8325,0.8775 l 0,4.14 -3.959996,0 c -0.4725,0 -0.8775,0.36 -0.8775,0.81 0,0.4725 0.36,0.7875 0.8775,0.7875 l 3.959996,0 0,4.1175 c 0,0.4725 0.3825,0.8775 0.8325,0.8775 0.495,0 0.81,-0.36 0.81,-0.8775 l 0,-4.1175 3.9825,0 c 0.5175,0 0.8775,-0.315 0.8775,-0.7875 0,-0.495 -0.36,-0.81 -0.8775,-0.81 z" />
      <path
         id="path4743"
         style=""
         d="m 119.84625,871.66965 -3.9825,0 0,-4.14 c 0,-0.5175 -0.315,-0.8775 -0.81,-0.8775 -0.495,0 -0.8325,0.36 -0.8325,0.8775 l 0,4.14 -3.96,0 c -0.4725,0 -0.8775,0.36 -0.8775,0.81 0,0.4725 0.36,0.7875 0.8775,0.7875 l 3.96,0 0,4.1175 c 0,0.4725 0.3825,0.8775 0.8325,0.8775 0.495,0 0.81,-0.36 0.81,-0.8775 l 0,-4.1175 3.9825,0 c 0.5175,0 0.8775,-0.315 0.8775,-0.7875 0,-0.495 -0.36,-0.81 -0.8775,-0.81 z" />
      <path
         id="path4745"
         style=""
         d="m 126.36141,871.51215 c 0,1.125 0.855,1.9575 2.16,1.9575 1.305,0 2.1825,-0.81 2.1825,-1.9575 0,-1.1475 -0.8775,-1.9575 -2.1825,-1.9575 -1.305,0 -2.16,0.8325 -2.16,1.9575 z m 0.855,5.1975 -1.3275,5.2425 c -0.0225,0.0675 -0.045,0.1575 -0.045,0.27 0,0.1575 0.135,0.315 0.3375,0.3825 l 0.72,0.27 c 0.0675,0.0225 0.135,0.045 0.2025,0.045 0.2025,0 0.36,-0.135 0.4725,-0.36 l 2.835,-5.895 c 0.0675,-0.135 0.09,-0.225 0.09,-0.2925 0,-0.1125 -0.135,-0.225 -0.3375,-0.225 l -2.2725,0 c -0.4725,0 -0.5625,0.135 -0.675,0.5625 z" />
      <path
         id="path4747"
         style="fill:#3a7f99;fill-opacity:1"
         d="m 65.863125,900.67215 0,-2.0475 c 0,-0.945 -0.1125,-1.35 -0.7875,-1.35 -0.5625,0 -0.855,0.2025 -0.855,0.6975 0,0 0,0.0225 0,0.045 -1.215,-0.6075 -2.3175,-0.9225 -3.465,-0.9225 -3.15,0 -5.535,2.3175 -5.535,5.355 0,3.0375 2.3625,5.3325 5.5575,5.3325 2.655,0 5.13,-1.6425 5.13,-2.6775 0,-0.45 -0.315,-0.765 -0.765,-0.765 -0.585,0 -1.0125,0.54 -1.6875,0.99 -0.7875,0.5175 -1.6875,0.81 -2.565,0.81 -2.295,0 -3.7575,-1.53 -3.7575,-3.7125 0,-2.115 1.575,-3.6225 3.8475,-3.6225 1.305,0 2.34,0.6075 3.015,1.8 0.3375,0.6075 0.5625,0.8775 1.035,0.8775 0.54,0 0.8325,-0.27 0.8325,-0.81 z" />
      <path
         id="path4749"
         style="fill:#3a7f99;fill-opacity:1"
         d="m 80.185781,902.44965 c 0,-3.0375 -2.25,-5.3325 -5.7375,-5.3325 -3.4875,0 -5.76,2.2725 -5.76,5.3325 0,3.06 2.2725,5.3325 5.76,5.3325 3.4875,0 5.7375,-2.2725 5.7375,-5.3325 z m -5.7375,3.8025 c -2.2725,0 -3.8475,-1.62 -3.8475,-3.8025 0,-2.1825 1.575,-3.825 3.8475,-3.825 2.2725,0 3.8475,1.6425 3.8475,3.825 0,2.205 -1.575,3.8025 -3.8475,3.8025 z" />
      <path
         id="path4751"
         style="fill:#3a7f99;fill-opacity:1"
         d="m 83.888437,905.95965 c -0.09,0 -0.1575,0 -0.225,0 -0.9,0 -1.282499,0.135 -1.282499,0.765 0,0.5175 0.2925,0.7875 0.922499,0.7875 0.292501,0 0.495001,0 0.585,0 l 2.002501,0 c 0.8325,0 1.169999,-0.045 1.169999,-0.7875 0,-0.6075 -0.292499,-0.7875 -1.057499,-0.7875 -0.135001,0 -0.292501,0.0225 -0.472501,0.0225 l 0,-4.5675 c 0,-1.6425 1.53,-2.6325 2.8575,-2.6325 1.440001,0 2.25,0.8775 2.25,2.6325 l 0,4.5675 c -0.134999,0 -0.247499,0 -0.36,0 -0.7875,0 -1.102499,0.1575 -1.102499,0.765 0,0.72 0.314999,0.7875 1.102499,0.7875 l 2.430001,0 c 0.787499,0 1.17,-0.1575 1.17,-0.7875 0,-0.5625 -0.337501,-0.765 -1.035,-0.765 -0.157501,0 -0.3375,0 -0.495,0 l 0,-4.9725 c 0,-2.5425 -1.485,-3.915 -3.5775,-3.915 -1.147501,0 -2.16,0.495 -3.217501,1.485 l 0,-0.7425 c 0,-0.27 -0.2025,-0.45 -0.629999,-0.45 l -1.035001,0 c -1.012499,0 -1.507499,0 -1.507499,0.765 0,0.5625 0.314999,0.7875 1.0125,0.7875 0.1575,0 0.337499,0 0.494999,0 l 0,7.0425 z" />
      <path
         id="path4753"
         style="fill:#3a7f99;fill-opacity:1"
         d="m 96.703594,906.72465 c 0,0.6975 0.2925,1.0575 0.81,1.0575 0.2475,0 0.6075,-0.18 1.125,-0.5175 1.2375,0.315 2.339996,0.495 3.329996,0.495 2.745,0 4.2975,-1.3725 4.2975,-3.2625 0,-2.16 -1.5075,-3.015 -4.41,-3.0825 -2.159996,-0.045 -3.419996,-0.1575 -3.419996,-1.3275 0,-0.8775 0.8325,-1.62 2.294996,-1.62 1.1475,0 1.9575,0.27 2.79,1.0125 0.6525,0.585 0.8775,1.1475 1.3725,1.1475 0.54,0 0.7425,-0.3825 0.7425,-1.1025 l 0,-1.2825 c 0,-0.7425 -0.2475,-1.1025 -0.7425,-1.1025 -0.585,0 -0.81,0.4275 -1.125,0.4275 -0.315,0 -1.1925,-0.495 -2.79,-0.495 -2.722496,0 -4.229996,1.26 -4.229996,3.0825 0,1.9575 1.5975,3.0375 4.589996,3.0375 0.315,0 0.5175,0 0.63,0 1.665,0 2.475,0.315 2.475,1.44 0,0.99 -0.99,1.71 -2.5875,1.71 -1.485,0 -2.744996,-0.54 -3.329996,-1.305 -0.4275,-0.5625 -0.36,-1.17 -1.035,-1.17 -0.585,0 -0.7875,0.315 -0.7875,0.9 l 0,1.9575 z" />
      <path
         id="path4755"
         style="fill:#3a7f99;fill-opacity:1"
         d="m 120.79125,902.44965 c 0,-3.0375 -2.25,-5.3325 -5.7375,-5.3325 -3.4875,0 -5.76,2.2725 -5.76,5.3325 0,3.06 2.2725,5.3325 5.76,5.3325 3.4875,0 5.7375,-2.2725 5.7375,-5.3325 z m -5.7375,3.8025 c -2.2725,0 -3.8475,-1.62 -3.8475,-3.8025 0,-2.1825 1.575,-3.825 3.8475,-3.825 2.2725,0 3.8475,1.6425 3.8475,3.825 0,2.205 -1.575,3.8025 -3.8475,3.8025 z" />
      <path
         id="path4757"
         style="fill:#3a7f99;fill-opacity:1"
         d="m 127.84641,894.70965 0,11.25 -3.0375,0 c -0.6075,0 -0.9225,0.2475 -0.9225,0.765 0,0.5175 0.2925,0.7875 0.8775,0.7875 l 8.1,0 c 0.6525,0 0.9,-0.1575 0.9,-0.7875 0,-0.54 -0.27,-0.765 -0.8325,-0.765 l -3.42,0 0,-12.375 c 0,-0.27 -0.2025,-0.45 -0.63,-0.45 l -3.6225,0 c -0.585,0 -0.8775,0.27 -0.8775,0.7875 0,0.5625 0.315,0.765 1.035,0.765 0.1125,0 0.315,0.0225 0.5625,0.0225 l 1.8675,0 z" />
      <path
         id="path4759"
         style="fill:#3a7f99;fill-opacity:1"
         d="m 138.45656,901.48215 c 0.4275,-1.8225 1.845,-2.9025 3.78,-2.9025 1.7775,0 3.1725,1.1475 3.375,2.9025 l -7.155,0 z m -0.045,1.44 7.38,0 c 1.35,0 1.8225,0 1.8225,-1.035 0,-2.4525 -2.0475,-4.815 -5.3775,-4.815 -3.3975,0 -5.7375,2.1825 -5.7375,5.3325 0,3.285 2.115,5.3775 5.5125,5.3775 1.485,0 3.0825,-0.36 4.59,-1.1025 0.6525,-0.315 0.9675,-0.6525 0.9675,-1.1025 0,-0.405 -0.3375,-0.72 -0.765,-0.72 -0.99,0 -2.4075,1.3725 -4.635,1.3725 -2.2725,0 -3.645,-1.1925 -3.7575,-3.3075 z" />
      <path
         id="path4761"
         style=""
         d="m 153.49922,905.71215 c 0,1.125 0.855,1.9575 2.16,1.9575 1.305,0 2.16,-0.81 2.16,-1.9575 0,-1.1475 -0.855,-1.9575 -2.16,-1.9575 -1.305,0 -2.16,0.8325 -2.16,1.9575 z" />
      <path
         id="path4763"
         style="fill:#795e30;fill-opacity:1"
         d="m 168.45187,894.70965 0,11.25 -3.0375,0 c -0.6075,0 -0.9225,0.2475 -0.9225,0.765 0,0.5175 0.2925,0.7875 0.8775,0.7875 l 8.10001,0 c 0.65249,0 0.89999,-0.1575 0.89999,-0.7875 0,-0.54 -0.27,-0.765 -0.8325,-0.765 l -3.42,0 0,-12.375 c 0,-0.27 -0.2025,-0.45 -0.63,-0.45 l -3.6225,0 c -0.585,0 -0.8775,0.27 -0.8775,0.7875 0,0.5625 0.315,0.765 1.035,0.765 0.1125,0 0.315,0.0225 0.5625,0.0225 l 1.8675,0 z" />
      <path
         id="path4765"
         style="fill:#795e30;fill-opacity:1"
         d="m 188.46703,902.44965 c 0,-3.0375 -2.25,-5.3325 -5.7375,-5.3325 -3.4875,0 -5.76,2.2725 -5.76,5.3325 0,3.06 2.2725,5.3325 5.76,5.3325 3.4875,0 5.7375,-2.2725 5.7375,-5.3325 z m -5.7375,3.8025 c -2.2725,0 -3.8475,-1.62 -3.8475,-3.8025 0,-2.1825 1.575,-3.825 3.8475,-3.825 2.2725,0 3.8475,1.6425 3.8475,3.825 0,2.205 -1.575,3.8025 -3.8475,3.8025 z" />
      <path
         id="path4767"
         style="fill:#795e30;fill-opacity:1"
         d="m 200.71969,906.92715 0,-8.01 c 0.0675,0 0.135,0 0.2025,0 0.9225,0 1.305,-0.1575 1.305,-0.7875 0,-0.5175 -0.2925,-0.765 -0.8775,-0.765 l -1.665,0 c -0.4275,0 -0.63,0.135 -0.63,0.45 l 0,0.7875 c -1.0575,-0.8325 -2.115,-1.26 -3.24,-1.26 -2.655,0 -4.8375,2.0025 -4.8375,4.8375 0,2.88 2.025,4.8825 4.7475,4.8825 1.4175,0 2.4525,-0.4725 3.3525,-1.5075 l 0,1.3275 c 0,2.2725 -0.6975,3.3075 -2.9925,3.3075 -0.585,0 -1.1925,-0.1575 -1.845,-0.1575 -0.5175,0 -0.945,0.405 -0.945,0.855 0,0.72 0.7875,1.0125 2.4075,1.0125 2.0475,0 3.5325,-0.6075 4.3425,-1.665 0.6525,-0.855 0.675,-1.8225 0.675,-3.06 0,-0.09 0,-0.1575 0,-0.2475 z m -4.77,-7.9425 c 1.935,0 3.2625,1.35 3.2625,3.195 0,1.8675 -1.35,3.195 -3.2625,3.195 -1.935,0 -3.2625,-1.35 -3.2625,-3.195 0,-1.89 1.35,-3.195 3.2625,-3.195 z" />
      <path
         id="path4769"
         style=""
         d="m 212.02734,894.59715 c 0,-0.315 -0.18,-0.495 -0.4275,-0.495 -0.5175,0 -1.2375,0.6975 -2.0925,2.0925 -1.305,2.115 -1.935,4.3425 -1.935,6.8175 0,2.475 0.63,4.7025 1.935,6.8175 0.855,1.395 1.575,2.0925 2.0925,2.0925 0.2475,0 0.4275,-0.2025 0.4275,-0.5175 0,-0.4275 -0.6075,-1.3275 -1.2375,-2.925 -0.6975,-1.8 -1.0575,-3.5325 -1.0575,-5.4675 0,-2.475 0.585,-4.3425 1.3725,-6.21 0.4725,-1.125 0.9225,-1.8225 0.9225,-2.205 z" />
      <path
         id="path4771"
         style="fill:#001080;fill-opacity:1"
         d="m 226.2375,910.32465 -2.6325,0 c -0.5625,0 -0.855,0.27 -0.855,0.7875 0,0.6075 0.27,0.7875 0.9225,0.7875 l 4.86,0 c 0.585,0 0.8775,-0.27 0.8775,-0.7875 0,-0.5625 -0.3375,-0.7875 -1.035,-0.7875 -0.1575,0 -0.315,0 -0.4725,0 l 0,-11.4075 c 0.0675,0 0.135,0 0.2025,0 0.9225,0 1.305,-0.1575 1.305,-0.7875 0,-0.5175 -0.2925,-0.765 -0.8775,-0.765 l -1.665,0 c -0.4275,0 -0.63,0.135 -0.63,0.45 l 0,1.0575 c -0.99,-1.0125 -2.205,-1.53 -3.6,-1.53 -2.88,0 -5.1975,2.16 -5.1975,5.2425 0,2.925 2.115,4.95 4.995,4.95 1.5525,0 2.9025,-0.5625 3.8025,-1.5975 l 0,4.3875 z m -6.885,-7.8525 c 0,-1.98 1.395,-3.4425 3.465,-3.4425 2.0475,0 3.465,1.4625 3.465,3.4425 0,1.98 -1.4175,3.4425 -3.465,3.4425 -2.025,0 -3.465,-1.395 -3.465,-3.4425 z" />
      <path
         id="path4773"
         style=""
         d="m 234.62016,911.40465 c 0,0.315 0.18,0.5175 0.4275,0.5175 0.5175,0 1.2375,-0.6975 2.0925,-2.0925 1.305,-2.115 1.9575,-4.3425 1.9575,-6.8175 0,-2.475 -0.6525,-4.7025 -1.9575,-6.8175 -0.855,-1.395 -1.575,-2.0925 -2.0925,-2.0925 -0.2475,0 -0.4275,0.18 -0.4275,0.495 0,0.4275 0.6075,1.3275 1.2375,2.925 0.6975,1.8 1.0575,3.555 1.0575,5.49 0,2.475 -0.5625,4.3425 -1.35,6.21 -0.4725,1.125 -0.945,1.8 -0.945,2.1825 z" />
      <path
         id="path4775"
         style=""
         d="m 248.17781,899.63715 c 0,1.125 0.855,1.9575 2.16,1.9575 1.305,0 2.1825,-0.81 2.1825,-1.9575 0,-1.1475 -0.8775,-1.9575 -2.1825,-1.9575 -1.305,0 -2.16,0.8325 -2.16,1.9575 z m 0.855,5.1975 -1.3275,5.2425 c -0.0225,0.0675 -0.045,0.1575 -0.045,0.27 0,0.1575 0.135,0.315 0.3375,0.3825 l 0.72,0.27 c 0.0675,0.0225 0.135,0.045 0.2025,0.045 0.2025,0 0.36,-0.135 0.4725,-0.36 l 2.835,-5.895 c 0.0675,-0.135 0.09,-0.225 0.09,-0.2925 0,-0.1125 -0.135,-0.225 -0.3375,-0.225 l -2.2725,0 c -0.4725,0 -0.5625,0.135 -0.675,0.5625 z" />
      <path
         id="path4777"
         style=""
         d="m 5.6925,926.43465 0,1.035 c 0,2.0925 0.315,3.195 2.0025,3.69 -1.6875,0.5175 -2.0025,1.6425 -2.0025,3.7125 l 0,1.035 c 0,1.2825 -0.09,1.89 -1.2375,2.0925 -0.63,0.1125 -1.2375,0.0675 -1.2375,0.8775 0,0.5625 0.3375,0.8775 0.9675,0.8775 2.835,0 3.3525,-1.5075 3.3525,-4.41 l 0,-0.6975 c 0,-2.1825 0.72,-2.34 2.16,-2.5875 0.6075,-0.1125 0.81,-0.36 0.81,-0.9 0,-0.495 -0.225,-0.72 -0.675,-0.8325 -1.3275,-0.3375 -2.295,-0.1575 -2.295,-2.6325 l 0,-0.6975 c 0,-2.9475 -0.5175,-4.4325 -3.4875,-4.4325 -0.495,0 -0.8325,0.3375 -0.8325,0.8775 0,0.9 0.7875,0.7425 1.3725,0.9 1.035,0.27 1.1025,0.855 1.1025,2.0925 z" />
      <path
         id="path4779"
         style="fill:#0000ff"
         d="m 10.1475,962.18715 -3.6,0 0,-6.705 3.825,0 c 0.5625,0 0.8775,-0.2925 0.8775,-0.81 0,-0.5175 -0.315,-0.7875 -0.9225,-0.7875 l -3.8475,0 c -0.0225,-0.225 -0.0225,-0.4275 -0.0225,-0.63 0,-1.575 0.6525,-2.25 2.3175,-2.25 0.9675,0 1.71,0.27 2.25,0.27 0.5175,0 0.9,-0.315 0.9,-0.7875 0,-0.7875 -0.81,-1.125 -2.4075,-1.125 -3.3525,0 -4.815,1.1025 -4.815,3.735 0,0.2475 0.0225,0.5175 0.045,0.7875 l -1.755,0 c -0.585,0 -0.8775,0.27 -0.8775,0.7875 0,0.5175 0.2925,0.81 0.9,0.81 l 1.8225,0 0,6.705 -1.8675,0 c -0.5625,0 -0.8775,0.27 -0.8775,0.7875 0,0.5175 0.315,0.7875 0.9225,0.7875 l 7.1775,0 c 0.585,0 0.8775,-0.27 0.8775,-0.7875 0,-0.5175 -0.315,-0.7875 -0.9225,-0.7875 z" />
      <path
         id="path4781"
         style="fill:#0000ff"
         d="m 17.517656,959.71215 0,-5.265 c 0,-0.045 0,-0.0675 0,-0.1125 0,-0.495 -0.0225,-0.72 -0.63,-0.72 l -1.665,0 c -0.585,0 -0.8775,0.2475 -0.8775,0.765 0,0.5625 0.315,0.7875 1.0125,0.7875 0.1575,0 0.3375,0 0.495,0 l 0,4.95 c 0,2.565 1.215,3.87 3.6225,3.87 1.3275,0 2.2725,-0.5175 3.42,-1.4175 l 0,0.7425 c 0,0.27 0.2025,0.45 0.63,0.45 l 1.665,0 c 0.585,0 0.8775,-0.27 0.8775,-0.7875 0,-0.5625 -0.315,-0.765 -1.0125,-0.765 -0.1575,0 -0.3375,0 -0.495,0 l 0,-7.5375 c 0,-0.6525 0,-1.0575 -0.765,-1.0575 l -2.34,0 c -0.6075,0 -0.8775,0.225 -0.8775,0.765 0,0.54 0.225,0.7875 0.81,0.7875 l 1.5075,0 0,4.545 c 0,1.62 -1.4175,2.655 -2.9025,2.655 -1.71,0 -2.475,-0.855 -2.475,-2.655 z" />
      <path
         id="path4783"
         style="fill:#0000ff"
         d="m 29.747812,962.20965 c -0.09,0 -0.1575,0 -0.225,0 -0.9,0 -1.282499,0.135 -1.282499,0.765 0,0.5175 0.292499,0.7875 0.922499,0.7875 0.292501,0 0.495,0 0.585,0 l 2.0025,0 c 0.832501,0 1.170001,-0.045 1.170001,-0.7875 0,-0.6075 -0.292501,-0.7875 -1.057501,-0.7875 -0.135,0 -0.2925,0.0225 -0.4725,0.0225 l 0,-4.5675 c 0,-1.6425 1.530001,-2.6325 2.857501,-2.6325 1.439999,0 2.25,0.8775 2.25,2.6325 l 0,4.5675 c -0.135,0 -0.247501,0 -0.36,0 -0.787501,0 -1.102501,0.1575 -1.102501,0.765 0,0.72 0.315,0.7875 1.102501,0.7875 l 2.43,0 c 0.7875,0 1.17,-0.1575 1.17,-0.7875 0,-0.5625 -0.337501,-0.765 -1.035001,-0.765 -0.157499,0 -0.337499,0 -0.494999,0 l 0,-4.9725 c 0,-2.5425 -1.485001,-3.915 -3.5775,-3.915 -1.1475,0 -2.160001,0.495 -3.217501,1.485 l 0,-0.7425 c 0,-0.27 -0.2025,-0.45 -0.63,-0.45 l -1.035,0 c -1.0125,0 -1.507499,0 -1.507499,0.765 0,0.5625 0.314999,0.7875 1.012499,0.7875 0.1575,0 0.3375,0 0.495,0 l 0,7.0425 z" />
      <path
         id="path4785"
         style="fill:#0000ff"
         d="m 52.327969,956.92215 0,-2.0475 c 0,-0.945 -0.1125,-1.35 -0.7875,-1.35 -0.5625,0 -0.855,0.2025 -0.855,0.6975 0,0 0,0.0225 0,0.045 -1.215,-0.6075 -2.3175,-0.9225 -3.465,-0.9225 -3.15,0 -5.535,2.3175 -5.535,5.355 0,3.0375 2.3625,5.3325 5.5575,5.3325 2.655,0 5.13,-1.6425 5.13,-2.6775 0,-0.45 -0.315,-0.765 -0.765,-0.765 -0.585,0 -1.0125,0.54 -1.6875,0.99 -0.7875,0.5175 -1.6875,0.81 -2.565,0.81 -2.295,0 -3.7575,-1.53 -3.7575,-3.7125 0,-2.115 1.575,-3.6225 3.8475,-3.6225 1.305,0 2.34,0.6075 3.015,1.8 0.3375,0.6075 0.5625,0.8775 1.035,0.8775 0.54,0 0.8325,-0.27 0.8325,-0.81 z" />
      <path
         id="path4787"
         style="fill:#0000ff"
         d="m 63.905625,954.22215 -4.32,0 0,-2.2275 c 0,-1.08 -0.09,-1.53 -0.8775,-1.53 -0.585,0 -0.855,0.315 -0.855,0.9225 0,0.2925 0,0.495 0,0.585 l 0,2.25 -1.215,0 c -1.0575,0 -1.5075,0.0675 -1.5075,0.7875 0,0.54 0.27,0.765 0.8775,0.765 l 1.845,0 0,3.6675 c 0,0.1125 0,0.225 0,0.3375 0,1.0125 0.0225,1.89 0.405,2.5425 0.63,1.1025 1.8,1.6425 3.4875,1.6425 1.035,0 2.1825,-0.2925 3.555,-0.8325 0.81,-0.315 1.215,-0.63 1.215,-1.1475 0,-0.405 -0.36,-0.7875 -0.765,-0.7875 -0.8775,0 -2.34,1.17 -4.1175,1.17 -1.935,0 -2.07,-1.17 -2.07,-2.925 l 0,-3.6675 4.455,0 c 0.6075,0 0.9225,-0.2475 0.9225,-0.765 0,-0.5625 -0.3375,-0.7875 -1.035,-0.7875 z" />
      <path
         id="path4789"
         style="fill:#0000ff"
         d="m 75.460781,962.20965 0,-8.145 c 0,-0.27 -0.2025,-0.45 -0.63,-0.45 l -3.2175,0 c -0.585,0 -0.8775,0.2475 -0.8775,0.765 0,0.5175 0.315,0.7875 0.9225,0.7875 l 2.1375,0 0,7.0425 -3.3525,0 c -0.6075,0 -0.9225,0.2475 -0.9225,0.765 0,0.5175 0.2925,0.7875 0.8775,0.7875 l 8.5275,0 c 0.6525,0 0.9,-0.1575 0.9,-0.7875 0,-0.54 -0.27,-0.765 -0.8325,-0.765 l -3.5325,0 z m -2.0475,-11.7675 c 0,0.9 0.225,1.08 1.1475,1.08 1.0575,0 1.125,-0.2475 1.125,-1.395 0,-1.1475 -0.1125,-1.485 -1.125,-1.485 -1.0125,0 -1.1475,0.3375 -1.1475,1.8 z" />
      <path
         id="path4791"
         style="fill:#0000ff"
         d="m 93.720938,958.69965 c 0,-3.0375 -2.25,-5.3325 -5.737501,-5.3325 -3.4875,0 -5.759999,2.2725 -5.759999,5.3325 0,3.06 2.272499,5.3325 5.759999,5.3325 3.487501,0 5.737501,-2.2725 5.737501,-5.3325 z m -5.737501,3.8025 c -2.2725,0 -3.8475,-1.62 -3.8475,-3.8025 0,-2.1825 1.575,-3.825 3.8475,-3.825 2.272501,0 3.847501,1.6425 3.847501,3.825 0,2.205 -1.575,3.8025 -3.847501,3.8025 z" />
      <path
         id="path4793"
         style="fill:#0000ff"
         d="m 97.423594,962.20965 c -0.09,0 -0.1575,0 -0.225,0 -0.9,0 -1.2825,0.135 -1.2825,0.765 0,0.5175 0.2925,0.7875 0.9225,0.7875 0.2925,0 0.495,0 0.585,0 l 2.0025,0 c 0.832496,0 1.169996,-0.045 1.169996,-0.7875 0,-0.6075 -0.2925,-0.7875 -1.057496,-0.7875 -0.135,0 -0.2925,0.0225 -0.4725,0.0225 l 0,-4.5675 c 0,-1.6425 1.529996,-2.6325 2.857496,-2.6325 1.44,0 2.25,0.8775 2.25,2.6325 l 0,4.5675 c -0.135,0 -0.2475,0 -0.36,0 -0.7875,0 -1.1025,0.1575 -1.1025,0.765 0,0.72 0.315,0.7875 1.1025,0.7875 l 2.43,0 c 0.7875,0 1.17,-0.1575 1.17,-0.7875 0,-0.5625 -0.3375,-0.765 -1.035,-0.765 -0.1575,0 -0.3375,0 -0.495,0 l 0,-4.9725 c 0,-2.5425 -1.485,-3.915 -3.5775,-3.915 -1.1475,0 -2.16,0.495 -3.217496,1.485 l 0,-0.7425 c 0,-0.27 -0.2025,-0.45 -0.63,-0.45 l -1.035,0 c -1.0125,0 -1.5075,0 -1.5075,0.765 0,0.5625 0.315,0.7875 1.0125,0.7875 0.1575,0 0.3375,0 0.495,0 l 0,7.0425 z" />
      <path
         id="path4795"
         style="fill:#795e30;fill-opacity:1"
         d="m 125.75391,955.18965 0,-5.355 c 0,-0.315 -0.2025,-0.45 -0.63,-0.45 l -1.665,0 c -0.585,0 -0.8775,0.27 -0.8775,0.7875 0,0.5625 0.315,0.765 1.0125,0.765 0.1575,0 0.3375,0.0225 0.495,0.0225 l 0,11.25 c -0.09,0 -0.1575,0 -0.225,0 -0.9,0 -1.2825,0.135 -1.2825,0.765 0,0.5175 0.2925,0.7875 0.8775,0.7875 l 2.0025,0 c 0.3375,0 0.45,-0.18 0.45,-0.5625 l 0,-0.8775 c 0.7425,1.1025 1.89,1.6425 3.42,1.6425 2.9475,0 5.1975,-2.3175 5.1975,-5.175 0,-2.9025 -2.205,-5.175 -5.1525,-5.175 -1.5525,0 -2.79,0.54 -3.6225,1.575 z m 3.42,7.0425 c -2.0475,0 -3.465,-1.485 -3.465,-3.51 0,-2.0475 1.44,-3.51 3.465,-3.51 2.0475,0 3.465,1.5075 3.465,3.51 0,2.0925 -1.4175,3.51 -3.465,3.51 z" />
      <path
         id="path4797"
         style="fill:#795e30;fill-opacity:1"
         d="m 144.62156,962.36715 0.1125,0.675 c 0.09,0.4725 0.36,0.72 0.765,0.72 l 1.7325,0 c 0.585,0 0.8775,-0.27 0.8775,-0.7875 0,-0.6525 -0.3825,-0.765 -1.305,-0.765 l -0.5625,0 0,-4.9725 c 0,-2.655 -1.305,-3.8925 -4.1175,-3.8925 -2.475,0 -4.095,0.7875 -4.095,1.5525 0,0.5625 0.3375,0.9225 0.7425,0.9225 0.855,0 1.755,-0.9225 3.3075,-0.9225 1.6875,0 2.475,0.7875 2.475,2.475 0,0.0225 0,0.045 0,0.0675 -0.9,-0.225 -1.755,-0.3375 -2.61,-0.3375 -3.2625,0 -5.085,1.3725 -5.085,3.645 0,1.935 1.44,3.285 3.645,3.285 1.5075,0 2.925,-0.585 4.1175,-1.665 z m -0.0675,-3.465 0,1.1925 c 0,0.99 -1.8,2.25 -3.78,2.25 -1.2825,0 -2.16,-0.7425 -2.16,-1.71 0,-1.2375 1.2825,-2.115 3.6225,-2.115 0.81,0 1.575,0.135 2.3175,0.3825 z" />
      <path
         id="path4799"
         style="fill:#795e30;fill-opacity:1"
         d="m 153.27422,962.20965 6.03,-5.895 c 0.6525,-0.63 0.99,-1.17 0.99,-1.5975 0,-0.72 -0.5175,-1.1025 -1.5525,-1.1025 l -5.8725,0 c -1.0125,0 -1.53,0.2475 -1.53,0.8775 l 0,1.8675 c 0,0.585 0.27,0.8775 0.7875,0.8775 0.72,0 0.7875,-0.4725 0.7875,-1.5075 l 0,-0.5625 5.2425,0 -6.2775,6.2775 c -0.45,0.45 -0.7875,0.7875 -0.7875,1.3275 0,0.6525 0.4275,0.99 1.26,0.99 l 6.6375,0 c 0.855,0 1.305,-0.18 1.305,-0.9225 l 0,-1.8225 c 0,-0.585 -0.2475,-0.8775 -0.765,-0.8775 -0.72,0 -0.7875,0.4725 -0.7875,1.5075 l 0,0.5625 -5.4675,0 z" />
      <path
         id="path4801"
         style=""
         d="m 171.42187,950.84715 c 0,-0.315 -0.18,-0.495 -0.4275,-0.495 -0.5175,0 -1.2375,0.6975 -2.0925,2.0925 -1.305,2.115 -1.935,4.3425 -1.935,6.8175 0,2.475 0.63,4.7025 1.935,6.8175 0.855,1.395 1.575,2.0925 2.0925,2.0925 0.2475,0 0.4275,-0.2025 0.4275,-0.5175 0,-0.4275 -0.6075,-1.3275 -1.2375,-2.925 -0.6975,-1.8 -1.0575,-3.5325 -1.0575,-5.4675 0,-2.475 0.585,-4.3425 1.3725,-6.21 0.4725,-1.125 0.9225,-1.8225 0.9225,-2.205 z" />
      <path
         id="path4803"
         style="fill:#001080;fill-opacity:1"
         d="m 188.46703,958.69965 c 0,-3.0375 -2.25,-5.3325 -5.7375,-5.3325 -3.4875,0 -5.76,2.2725 -5.76,5.3325 0,3.06 2.2725,5.3325 5.76,5.3325 3.4875,0 5.7375,-2.2725 5.7375,-5.3325 z m -5.7375,3.8025 c -2.2725,0 -3.8475,-1.62 -3.8475,-3.8025 0,-2.1825 1.575,-3.825 3.8475,-3.825 2.2725,0 3.8475,1.6425 3.8475,3.825 0,2.205 -1.575,3.8025 -3.8475,3.8025 z" />
      <path
         id="path4805"
         style="fill:#001080;fill-opacity:1"
         d="m 192.16969,962.20965 c -0.09,0 -0.1575,0 -0.225,0 -0.9,0 -1.2825,0.135 -1.2825,0.765 0,0.5175 0.2925,0.7875 0.9225,0.7875 0.2925,0 0.495,0 0.585,0 l 2.0025,0 c 0.8325,0 1.17,-0.045 1.17,-0.7875 0,-0.6075 -0.2925,-0.7875 -1.0575,-0.7875 -0.135,0 -0.2925,0.0225 -0.4725,0.0225 l 0,-4.5675 c 0,-1.6425 1.53,-2.6325 2.8575,-2.6325 1.44,0 2.25,0.8775 2.25,2.6325 l 0,4.5675 c -0.135,0 -0.2475,0 -0.36,0 -0.7875,0 -1.1025,0.1575 -1.1025,0.765 0,0.72 0.315,0.7875 1.1025,0.7875 l 2.43,0 c 0.7875,0 1.17,-0.1575 1.17,-0.7875 0,-0.5625 -0.3375,-0.765 -1.035,-0.765 -0.1575,0 -0.3375,0 -0.495,0 l 0,-4.9725 c 0,-2.5425 -1.485,-3.915 -3.5775,-3.915 -1.1475,0 -2.16,0.495 -3.2175,1.485 l 0,-0.7425 c 0,-0.27 -0.2025,-0.45 -0.63,-0.45 l -1.035,0 c -1.0125,0 -1.5075,0 -1.5075,0.765 0,0.5625 0.315,0.7875 1.0125,0.7875 0.1575,0 0.3375,0 0.495,0 l 0,7.0425 z" />
      <path
         id="path4807"
         style="fill:#001080;fill-opacity:1"
         d="m 206.13234,957.73215 c 0.4275,-1.8225 1.845,-2.9025 3.78,-2.9025 1.7775,0 3.1725,1.1475 3.375,2.9025 l -7.155,0 z m -0.045,1.44 7.38,0 c 1.35,0 1.8225,0 1.8225,-1.035 0,-2.4525 -2.0475,-4.815 -5.3775,-4.815 -3.3975,0 -5.7375,2.1825 -5.7375,5.3325 0,3.285 2.115,5.3775 5.5125,5.3775 1.485,0 3.0825,-0.36 4.59,-1.1025 0.6525,-0.315 0.9675,-0.6525 0.9675,-1.1025 0,-0.405 -0.3375,-0.72 -0.765,-0.72 -0.99,0 -2.4075,1.3725 -4.635,1.3725 -2.2725,0 -3.645,-1.1925 -3.7575,-3.3075 z" />
      <path
         id="path4809"
         style=""
         d="m 222.03,960.70215 -1.4175,5.58 c -0.0225,0.09 -0.0225,0.1575 -0.0225,0.27 0,0.18 0.1125,0.315 0.3375,0.405 l 0.7875,0.2925 c 0.0675,0.0225 0.135,0.045 0.2025,0.045 0.2025,0 0.3825,-0.135 0.495,-0.36 l 3.015,-6.2775 c 0.0675,-0.135 0.09,-0.2475 0.09,-0.315 0,-0.135 -0.135,-0.225 -0.36,-0.225 l -2.4075,0 c -0.495,0 -0.6075,0.1125 -0.72,0.585 z" />
      <path
         id="path4811"
         style="font-style:italic;font-variant:normal;font-weight:normal;font-stretch:normal;font-size:22.5px;line-height:125%;font-family:'Courier 10 Pitch';-inkscape-font-specification:'Courier 10 Pitch, Italic';text-align:start;writing-mode:lr-tb;text-anchor:start;fill:#001080;fill-opacity:1"
         d="m 247.77281,955.77465 -0.9225,4.4775 c -0.09,0.4275 -0.135,0.81 -0.135,1.1475 0,1.6875 1.0575,2.565 3.06,2.565 1.1925,0 2.4525,-0.2475 3.78,-0.765 0.9675,-0.36 1.4175,-0.63 1.4175,-1.2375 0,-0.36 -0.315,-0.63 -0.81,-0.63 -0.7425,0 -2.16,1.1025 -4.2075,1.1025 -0.9675,0 -1.5075,-0.5175 -1.5075,-1.395 0,-0.18 0.045,-0.45 0.1125,-0.765 l 0.9225,-4.5 4.185,0 c 0.7875,0 1.1925,-0.2925 1.1925,-0.9 0,-0.5175 -0.27,-0.6525 -0.855,-0.6525 l -4.185,0 0.54,-2.4975 c 0.0675,-0.315 0.09,-0.495 0.09,-0.5625 0,-0.3375 -0.36,-0.6975 -0.7875,-0.6975 -0.495,0 -0.8325,0.3825 -0.99,1.125 l -0.585,2.6325 -1.53,0 c -0.7875,0 -1.1925,0.315 -1.1925,0.9225 0,0.5175 0.27,0.63 0.855,0.63 l 1.5525,0 z" />
      <path
         id="path4813"
         style="font-style:italic;font-variant:normal;font-weight:normal;font-stretch:normal;font-size:22.5px;line-height:125%;font-family:'Courier 10 Pitch';-inkscape-font-specification:'Courier 10 Pitch, Italic';text-align:start;writing-mode:lr-tb;text-anchor:start;fill:#001080;fill-opacity:1"
         d="m 258.76547,955.12215 0.63,7.65 c 0.09,1.035 0.18,1.2825 0.945,1.2825 0.54,0 0.765,-0.225 1.08,-0.8775 l 2.61,-5.445 0.18,5.2425 c 0.0225,0.81 0.225,1.0575 0.8775,1.0575 0.6525,0 0.7875,-0.2025 1.1925,-0.9675 l 4.14,-7.9425 0.2925,0 c 0.4275,0 0.765,-0.36 0.765,-0.9 0,-0.4275 -0.2025,-0.6075 -0.6525,-0.6075 l -2.9925,0 c -0.6525,0 -1.0125,0.315 -1.0125,0.8775 0,0.4275 0.2475,0.63 0.675,0.63 l 1.2375,0 -3.33,6.9075 -0.3375,-5.175 c -0.0225,-0.405 -0.315,-0.63 -0.8325,-0.63 -0.4275,0 -0.7875,0.225 -0.9675,0.6075 l -2.5425,5.2875 -0.2925,-6.9975 1.125,0 c 0.6525,0 0.99,-0.315 0.99,-0.9 0,-0.405 -0.2025,-0.6075 -0.6525,-0.6075 l -3.2175,0 c -0.6525,0 -0.99,0.315 -0.99,0.8775 0,0.4275 0.2475,0.63 0.675,0.63 l 0.405,0 z" />
      <path
         id="path4815"
         style="font-style:italic;font-variant:normal;font-weight:normal;font-stretch:normal;font-size:22.5px;line-height:125%;font-family:'Courier 10 Pitch';-inkscape-font-specification:'Courier 10 Pitch, Italic';text-align:start;writing-mode:lr-tb;text-anchor:start;fill:#001080;fill-opacity:1"
         d="m 271.78312,959.50965 c 0,2.745 1.95751,4.5225 4.9725,4.5225 3.69,0 6.4125,-2.79 6.4125,-6.1875 0,-2.7225 -1.935,-4.5225 -4.9725,-4.5225 -3.64499,0 -6.4125,2.79 -6.4125,6.1875 z m 6.3,-4.7025 c 2.0025,0 3.24,1.1925 3.24,3.0825 0,2.6325 -1.88999,4.7025 -4.45499,4.7025 -2.02501,0 -3.26251,-1.17 -3.26251,-3.1275 0,-2.5425 1.9125,-4.6575 4.4775,-4.6575 z" />
      <path
         id="path4817"
         style=""
         d="m 288.76078,967.65465 c 0,0.315 0.18,0.5175 0.4275,0.5175 0.5175,0 1.2375,-0.6975 2.0925,-2.0925 1.305,-2.115 1.9575,-4.3425 1.9575,-6.8175 0,-2.475 -0.6525,-4.7025 -1.9575,-6.8175 -0.855,-1.395 -1.575,-2.0925 -2.0925,-2.0925 -0.2475,0 -0.4275,0.18 -0.4275,0.495 0,0.4275 0.6075,1.3275 1.2375,2.925 0.6975,1.8 1.0575,3.555 1.0575,5.49 0,2.475 -0.5625,4.3425 -1.35,6.21 -0.4725,1.125 -0.945,1.8 -0.945,2.1825 z" />
      <path
         id="path4819"
         style=""
         d="m 319.34109,954.55965 c 0,-1.26 0.1125,-1.935 1.2375,-2.1375 0.6075,-0.1125 1.2375,-0.0225 1.2375,-0.855 0,-0.54 -0.3375,-0.8775 -0.8325,-0.8775 -2.97,0 -3.4875,1.485 -3.4875,4.4325 l 0,0.6975 c 0,2.475 -0.9675,2.295 -2.295,2.6325 -0.45,0.1125 -0.675,0.3375 -0.675,0.8325 0,0.54 0.2025,0.7875 0.81,0.9 1.44,0.2475 2.16,0.405 2.16,2.5875 l 0,0.6975 c 0,2.9025 0.54,4.41 3.375,4.41 0.63,0 0.945,-0.315 0.945,-0.8775 0,-0.9 -0.765,-0.7425 -1.3725,-0.9 -1.035,-0.2475 -1.1025,-0.81 -1.1025,-2.07 l 0,-1.035 c 0,-2.07 -0.315,-3.195 -2.0025,-3.7125 1.6875,-0.495 2.0025,-1.5975 2.0025,-3.69 l 0,-1.035 z" />
      <path
         id="path4821"
         style="font-style:italic;font-variant:normal;font-weight:normal;font-stretch:normal;font-size:22.5px;line-height:125%;font-family:'Courier 10 Pitch';-inkscape-font-specification:'Courier 10 Pitch, Italic';text-align:start;writing-mode:lr-tb;text-anchor:start;fill:#001080;fill-opacity:1"
         d="m 58.280625,983.89965 -0.9225,4.4775 c -0.09,0.4275 -0.135,0.81 -0.135,1.1475 0,1.6875 1.0575,2.565 3.06,2.565 1.1925,0 2.4525,-0.2475 3.78,-0.765 0.9675,-0.36 1.4175,-0.63 1.4175,-1.2375 0,-0.36 -0.315,-0.63 -0.81,-0.63 -0.7425,0 -2.16,1.1025 -4.2075,1.1025 -0.9675,0 -1.5075,-0.5175 -1.5075,-1.395 0,-0.18 0.045,-0.45 0.1125,-0.765 l 0.9225,-4.5 4.185,0 c 0.7875,0 1.1925,-0.2925 1.1925,-0.9 0,-0.5175 -0.27,-0.6525 -0.855,-0.6525 l -4.185,0 0.54,-2.4975 c 0.0675,-0.315 0.09,-0.495 0.09,-0.5625 0,-0.3375 -0.36,-0.6975 -0.7875,-0.6975 -0.495,0 -0.8325,0.3825 -0.99,1.125 l -0.585,2.6325 -1.53,0 c -0.7875,0 -1.1925,0.315 -1.1925,0.9225 0,0.5175 0.27,0.63 0.855,0.63 l 1.5525,0 z" />
      <path
         id="path4823"
         style="font-style:italic;font-variant:normal;font-weight:normal;font-stretch:normal;font-size:22.5px;line-height:125%;font-family:'Courier 10 Pitch';-inkscape-font-specification:'Courier 10 Pitch, Italic';text-align:start;writing-mode:lr-tb;text-anchor:start;fill:#001080;fill-opacity:1"
         d="m 69.273281,983.24715 0.63,7.65 c 0.09,1.035 0.18,1.2825 0.945,1.2825 0.54,0 0.765,-0.225 1.08,-0.8775 l 2.61,-5.445 0.18,5.2425 c 0.0225,0.81 0.225,1.0575 0.8775,1.0575 0.6525,0 0.7875,-0.2025 1.1925,-0.9675 l 4.14,-7.9425 0.2925,0 c 0.4275,0 0.765,-0.36 0.765,-0.9 0,-0.4275 -0.2025,-0.6075 -0.6525,-0.6075 l -2.9925,0 c -0.6525,0 -1.0125,0.315 -1.0125,0.8775 0,0.4275 0.2475,0.63 0.675,0.63 l 1.2375,0 -3.33,6.9075 -0.3375,-5.175 c -0.0225,-0.405 -0.315,-0.63 -0.8325,-0.63 -0.4275,0 -0.7875,0.225 -0.9675,0.6075 l -2.5425,5.2875 -0.2925,-6.9975 1.125,0 c 0.6525,0 0.99,-0.315 0.99,-0.9 0,-0.405 -0.2025,-0.6075 -0.6525,-0.6075 l -3.2175,0 c -0.6525,0 -0.99,0.315 -0.99,0.8775 0,0.4275 0.2475,0.63 0.675,0.63 l 0.405,0 z" />
      <path
         id="path4825"
         style="font-style:italic;font-variant:normal;font-weight:normal;font-stretch:normal;font-size:22.5px;line-height:125%;font-family:'Courier 10 Pitch';-inkscape-font-specification:'Courier 10 Pitch, Italic';text-align:start;writing-mode:lr-tb;text-anchor:start;fill:#001080;fill-opacity:1"
         d="m 82.290937,987.63465 c 0,2.745 1.9575,4.5225 4.9725,4.5225 3.690001,0 6.412501,-2.79 6.412501,-6.1875 0,-2.7225 -1.935001,-4.5225 -4.9725,-4.5225 -3.645001,0 -6.412501,2.79 -6.412501,6.1875 z m 6.3,-4.7025 c 2.0025,0 3.240001,1.1925 3.240001,3.0825 0,2.6325 -1.89,4.7025 -4.455,4.7025 -2.025001,0 -3.2625,-1.17 -3.2625,-3.1275 0,-2.5425 1.912499,-4.6575 4.477499,-4.6575 z" />
      <path
         id="path4827"
         style=""
         d="m 115.68375,982.45965 0.27,-3.15 c 0,-0.045 0,-0.09 0,-0.135 0,-0.27 -0.1125,-0.315 -0.4725,-0.315 l -0.8775,0 c -0.36,0 -0.4725,0.045 -0.4725,0.315 0,0.045 0,0.09 0,0.135 l 0.2925,3.15 -2.9025,-1.26 c -0.1125,-0.045 -0.2025,-0.045 -0.27,-0.045 -0.135,0 -0.2025,0.1125 -0.2925,0.3825 l -0.2925,0.8325 c -0.045,0.1575 -0.0675,0.2925 -0.0675,0.3375 0,0.1125 0.135,0.2025 0.36,0.2475 l 3.06,0.6975 -2.07,2.385 c -0.1125,0.1125 -0.1575,0.2025 -0.1575,0.315 0,0.0675 0.09,0.18 0.2925,0.315 l 0.6975,0.5175 c 0.18,0.135 0.2925,0.18 0.3375,0.18 0.09,0 0.2025,-0.09 0.2925,-0.2475 l 1.6425,-2.7225 1.62,2.7225 c 0.09,0.18 0.18,0.2475 0.2925,0.2475 0.0675,0 0.1575,-0.0675 0.3375,-0.18 l 0.72,-0.5175 c 0.2025,-0.135 0.27,-0.2475 0.27,-0.315 0,-0.1125 -0.0675,-0.2025 -0.1575,-0.315 l -2.07,-2.385 3.0825,-0.6975 c 0.225,-0.045 0.3375,-0.135 0.3375,-0.27 0,-0.045 -0.0225,-0.135 -0.0675,-0.315 l -0.27,-0.8325 c -0.09,-0.27 -0.135,-0.3825 -0.2925,-0.3825 -0.045,0 -0.1575,0.0225 -0.27,0.0675 l -2.9025,1.2375 z" />
      <path
         id="path4829"
         style=""
         d="m 123.66141,987.61215 9.8325,0 c 0.45,0 0.6975,-0.27 0.6975,-0.81 0,-0.54 -0.2475,-0.81 -0.6975,-0.81 l -9.8325,0 c -0.45,0 -0.6975,0.27 -0.6975,0.81 0,0.54 0.2475,0.81 0.6975,0.81 z m 0,-3.69 9.8325,0 c 0.45,0 0.6975,-0.27 0.6975,-0.81 0,-0.54 -0.2475,-0.81 -0.6975,-0.81 l -9.8325,0 c -0.45,0 -0.6975,0.27 -0.6975,0.81 0,0.54 0.2475,0.81 0.6975,0.81 z" />
      <path
         id="path4831"
         style="fill:#09885a;fill-opacity:1"
         d="m 151.83422,991.88715 7.245,0 c 0.3375,0 0.585,-0.2475 0.63,-0.72 l 0.1125,-0.855 c 0,-0.0675 0.0225,-0.1575 0.0225,-0.225 0,-0.585 -0.315,-0.9 -0.7875,-0.9 -0.4725,0 -0.765,0.315 -0.8325,0.9675 l -5.0175,0 1.35,-1.305 c 2.8575,-2.835 5.1975,-4.5 5.1975,-7.11 0,-2.295 -1.8225,-4.0725 -4.275,-4.0725 -1.485,0 -2.9475,0.585 -3.87,1.485 -0.3375,0.3375 -0.36,0.54 -0.36,0.9675 0,0.765 0.1125,1.1475 0.6525,1.1475 0.765,0 0.9225,-0.6525 1.1925,-1.0125 0.495,-0.6525 1.4175,-1.0575 2.34,-1.0575 1.4175,0 2.4075,1.0575 2.4075,2.6325 0,1.845 -1.845,3.375 -4.725,6.0975 -1.5525,1.485 -2.43,2.2275 -2.43,2.9925 0,0.675 0.3825,0.9675 1.1475,0.9675 z" />
      <path
         id="path4833"
         style=""
         d="m 166.96687,984.01215 c 0,1.125 0.855,1.9575 2.16,1.9575 1.305,0 2.1825,-0.81 2.1825,-1.9575 0,-1.1475 -0.8775,-1.9575 -2.1825,-1.9575 -1.305,0 -2.16,0.8325 -2.16,1.9575 z m 0.855,5.1975 -1.3275,5.2425 c -0.0225,0.0675 -0.045,0.1575 -0.045,0.27 0,0.1575 0.135,0.315 0.3375,0.3825 l 0.72,0.27 c 0.0675,0.0225 0.135,0.045 0.2025,0.045 0.2025,0 0.36,-0.135 0.4725,-0.36 l 2.835,-5.895 c 0.0675,-0.135 0.09,-0.225 0.09,-0.2925 0,-0.1125 -0.135,-0.225 -0.3375,-0.225 l -2.2725,0 c -0.4725,0 -0.5625,0.135 -0.675,0.5625 z" />
      <path
         id="path4835"
         style="fill:#3a7f99;fill-opacity:1"
         d="m 65.863125,1013.1721 0,-2.0475 c 0,-0.945 -0.1125,-1.35 -0.7875,-1.35 -0.5625,0 -0.855,0.2025 -0.855,0.6975 0,0 0,0.023 0,0.045 -1.215,-0.6075 -2.3175,-0.9225 -3.465,-0.9225 -3.15,0 -5.535,2.3175 -5.535,5.355 0,3.0375 2.3625,5.3325 5.5575,5.3325 2.655,0 5.13,-1.6425 5.13,-2.6775 0,-0.45 -0.315,-0.765 -0.765,-0.765 -0.585,0 -1.0125,0.54 -1.6875,0.99 -0.7875,0.5175 -1.6875,0.81 -2.565,0.81 -2.295,0 -3.7575,-1.53 -3.7575,-3.7125 0,-2.115 1.575,-3.6225 3.8475,-3.6225 1.305,0 2.34,0.6075 3.015,1.8 0.3375,0.6075 0.5625,0.8775 1.035,0.8775 0.54,0 0.8325,-0.27 0.8325,-0.81 z" />
      <path
         id="path4837"
         style="fill:#3a7f99;fill-opacity:1"
         d="m 80.185781,1014.9496 c 0,-3.0375 -2.25,-5.3325 -5.7375,-5.3325 -3.4875,0 -5.76,2.2725 -5.76,5.3325 0,3.06 2.2725,5.3325 5.76,5.3325 3.4875,0 5.7375,-2.2725 5.7375,-5.3325 z m -5.7375,3.8025 c -2.2725,0 -3.8475,-1.62 -3.8475,-3.8025 0,-2.1825 1.575,-3.825 3.8475,-3.825 2.2725,0 3.8475,1.6425 3.8475,3.825 0,2.205 -1.575,3.8025 -3.8475,3.8025 z" />
      <path
         id="path4839"
         style="fill:#3a7f99;fill-opacity:1"
         d="m 83.888437,1018.4596 c -0.09,0 -0.1575,0 -0.225,0 -0.9,0 -1.282499,0.135 -1.282499,0.765 0,0.5175 0.2925,0.7875 0.922499,0.7875 0.292501,0 0.495001,0 0.585,0 l 2.002501,0 c 0.8325,0 1.169999,-0.045 1.169999,-0.7875 0,-0.6075 -0.292499,-0.7875 -1.057499,-0.7875 -0.135001,0 -0.292501,0.023 -0.472501,0.023 l 0,-4.5675 c 0,-1.6425 1.53,-2.6325 2.8575,-2.6325 1.440001,0 2.25,0.8775 2.25,2.6325 l 0,4.5675 c -0.134999,0 -0.247499,0 -0.36,0 -0.7875,0 -1.102499,0.1575 -1.102499,0.765 0,0.72 0.314999,0.7875 1.102499,0.7875 l 2.430001,0 c 0.787499,0 1.17,-0.1575 1.17,-0.7875 0,-0.5625 -0.337501,-0.765 -1.035,-0.765 -0.157501,0 -0.3375,0 -0.495,0 l 0,-4.9725 c 0,-2.5425 -1.485,-3.915 -3.5775,-3.915 -1.147501,0 -2.16,0.495 -3.217501,1.485 l 0,-0.7425 c 0,-0.27 -0.2025,-0.45 -0.629999,-0.45 l -1.035001,0 c -1.012499,0 -1.507499,0 -1.507499,0.765 0,0.5625 0.314999,0.7875 1.0125,0.7875 0.1575,0 0.337499,0 0.494999,0 l 0,7.0425 z" />
      <path
         id="path4841"
         style="fill:#3a7f99;fill-opacity:1"
         d="m 96.703594,1019.2246 c 0,0.6975 0.2925,1.0575 0.81,1.0575 0.2475,0 0.6075,-0.18 1.125,-0.5175 1.2375,0.315 2.339996,0.495 3.329996,0.495 2.745,0 4.2975,-1.3725 4.2975,-3.2625 0,-2.16 -1.5075,-3.015 -4.41,-3.0825 -2.159996,-0.045 -3.419996,-0.1575 -3.419996,-1.3275 0,-0.8775 0.8325,-1.62 2.294996,-1.62 1.1475,0 1.9575,0.27 2.79,1.0125 0.6525,0.585 0.8775,1.1475 1.3725,1.1475 0.54,0 0.7425,-0.3825 0.7425,-1.1025 l 0,-1.2825 c 0,-0.7425 -0.2475,-1.1025 -0.7425,-1.1025 -0.585,0 -0.81,0.4275 -1.125,0.4275 -0.315,0 -1.1925,-0.495 -2.79,-0.495 -2.722496,0 -4.229996,1.26 -4.229996,3.0825 0,1.9575 1.5975,3.0375 4.589996,3.0375 0.315,0 0.5175,0 0.63,0 1.665,0 2.475,0.315 2.475,1.44 0,0.99 -0.99,1.71 -2.5875,1.71 -1.485,0 -2.744996,-0.54 -3.329996,-1.305 -0.4275,-0.5625 -0.36,-1.17 -1.035,-1.17 -0.585,0 -0.7875,0.315 -0.7875,0.9 l 0,1.9575 z" />
      <path
         id="path4843"
         style="fill:#3a7f99;fill-opacity:1"
         d="m 120.79125,1014.9496 c 0,-3.0375 -2.25,-5.3325 -5.7375,-5.3325 -3.4875,0 -5.76,2.2725 -5.76,5.3325 0,3.06 2.2725,5.3325 5.76,5.3325 3.4875,0 5.7375,-2.2725 5.7375,-5.3325 z m -5.7375,3.8025 c -2.2725,0 -3.8475,-1.62 -3.8475,-3.8025 0,-2.1825 1.575,-3.825 3.8475,-3.825 2.2725,0 3.8475,1.6425 3.8475,3.825 0,2.205 -1.575,3.8025 -3.8475,3.8025 z" />
      <path
         id="path4845"
         style="fill:#3a7f99;fill-opacity:1"
         d="m 127.84641,1007.2096 0,11.25 -3.0375,0 c -0.6075,0 -0.9225,0.2475 -0.9225,0.765 0,0.5175 0.2925,0.7875 0.8775,0.7875 l 8.1,0 c 0.6525,0 0.9,-0.1575 0.9,-0.7875 0,-0.54 -0.27,-0.765 -0.8325,-0.765 l -3.42,0 0,-12.375 c 0,-0.27 -0.2025,-0.45 -0.63,-0.45 l -3.6225,0 c -0.585,0 -0.8775,0.27 -0.8775,0.7875 0,0.5625 0.315,0.765 1.035,0.765 0.1125,0 0.315,0.023 0.5625,0.023 l 1.8675,0 z" />
      <path
         id="path4847"
         style="fill:#3a7f99;fill-opacity:1"
         d="m 138.45656,1013.9821 c 0.4275,-1.8225 1.845,-2.9025 3.78,-2.9025 1.7775,0 3.1725,1.1475 3.375,2.9025 l -7.155,0 z m -0.045,1.44 7.38,0 c 1.35,0 1.8225,0 1.8225,-1.035 0,-2.4525 -2.0475,-4.815 -5.3775,-4.815 -3.3975,0 -5.7375,2.1825 -5.7375,5.3325 0,3.285 2.115,5.3775 5.5125,5.3775 1.485,0 3.0825,-0.36 4.59,-1.1025 0.6525,-0.315 0.9675,-0.6525 0.9675,-1.1025 0,-0.405 -0.3375,-0.72 -0.765,-0.72 -0.99,0 -2.4075,1.3725 -4.635,1.3725 -2.2725,0 -3.645,-1.1925 -3.7575,-3.3075 z" />
      <path
         id="path4849"
         style=""
         d="m 153.49922,1018.2121 c 0,1.125 0.855,1.9575 2.16,1.9575 1.305,0 2.16,-0.81 2.16,-1.9575 0,-1.1475 -0.855,-1.9575 -2.16,-1.9575 -1.305,0 -2.16,0.8325 -2.16,1.9575 z" />
      <path
         id="path4851"
         style="fill:#795e30;fill-opacity:1"
         d="m 168.45187,1007.2096 0,11.25 -3.0375,0 c -0.6075,0 -0.9225,0.2475 -0.9225,0.765 0,0.5175 0.2925,0.7875 0.8775,0.7875 l 8.10001,0 c 0.65249,0 0.89999,-0.1575 0.89999,-0.7875 0,-0.54 -0.27,-0.765 -0.8325,-0.765 l -3.42,0 0,-12.375 c 0,-0.27 -0.2025,-0.45 -0.63,-0.45 l -3.6225,0 c -0.585,0 -0.8775,0.27 -0.8775,0.7875 0,0.5625 0.315,0.765 1.035,0.765 0.1125,0 0.315,0.023 0.5625,0.023 l 1.8675,0 z" />
      <path
         id="path4853"
         style="fill:#795e30;fill-opacity:1"
         d="m 188.46703,1014.9496 c 0,-3.0375 -2.25,-5.3325 -5.7375,-5.3325 -3.4875,0 -5.76,2.2725 -5.76,5.3325 0,3.06 2.2725,5.3325 5.76,5.3325 3.4875,0 5.7375,-2.2725 5.7375,-5.3325 z m -5.7375,3.8025 c -2.2725,0 -3.8475,-1.62 -3.8475,-3.8025 0,-2.1825 1.575,-3.825 3.8475,-3.825 2.2725,0 3.8475,1.6425 3.8475,3.825 0,2.205 -1.575,3.8025 -3.8475,3.8025 z" />
      <path
         id="path4855"
         style="fill:#795e30;fill-opacity:1"
         d="m 200.71969,1019.4271 0,-8.01 c 0.0675,0 0.135,0 0.2025,0 0.9225,0 1.305,-0.1575 1.305,-0.7875 0,-0.5175 -0.2925,-0.765 -0.8775,-0.765 l -1.665,0 c -0.4275,0 -0.63,0.135 -0.63,0.45 l 0,0.7875 c -1.0575,-0.8325 -2.115,-1.26 -3.24,-1.26 -2.655,0 -4.8375,2.0025 -4.8375,4.8375 0,2.88 2.025,4.8825 4.7475,4.8825 1.4175,0 2.4525,-0.4725 3.3525,-1.5075 l 0,1.3275 c 0,2.2725 -0.6975,3.3075 -2.9925,3.3075 -0.585,0 -1.1925,-0.1575 -1.845,-0.1575 -0.5175,0 -0.945,0.405 -0.945,0.855 0,0.72 0.7875,1.0125 2.4075,1.0125 2.0475,0 3.5325,-0.6075 4.3425,-1.665 0.6525,-0.855 0.675,-1.8225 0.675,-3.06 0,-0.09 0,-0.1575 0,-0.2475 z m -4.77,-7.9425 c 1.935,0 3.2625,1.35 3.2625,3.195 0,1.8675 -1.35,3.195 -3.2625,3.195 -1.935,0 -3.2625,-1.35 -3.2625,-3.195 0,-1.89 1.35,-3.195 3.2625,-3.195 z" />
      <path
         id="path4857"
         style=""
         d="m 212.02734,1007.0971 c 0,-0.315 -0.18,-0.495 -0.4275,-0.495 -0.5175,0 -1.2375,0.6975 -2.0925,2.0925 -1.305,2.115 -1.935,4.3425 -1.935,6.8175 0,2.475 0.63,4.7025 1.935,6.8175 0.855,1.395 1.575,2.0925 2.0925,2.0925 0.2475,0 0.4275,-0.2025 0.4275,-0.5175 0,-0.4275 -0.6075,-1.3275 -1.2375,-2.925 -0.6975,-1.8 -1.0575,-3.5325 -1.0575,-5.4675 0,-2.475 0.585,-4.3425 1.3725,-6.21 0.4725,-1.125 0.9225,-1.8225 0.9225,-2.205 z" />
      <path
         id="path4859"
         style="fill:#001080;fill-opacity:1"
         d="m 229.0725,1014.9496 c 0,-3.0375 -2.25,-5.3325 -5.7375,-5.3325 -3.4875,0 -5.76,2.2725 -5.76,5.3325 0,3.06 2.2725,5.3325 5.76,5.3325 3.4875,0 5.7375,-2.2725 5.7375,-5.3325 z m -5.7375,3.8025 c -2.2725,0 -3.8475,-1.62 -3.8475,-3.8025 0,-2.1825 1.575,-3.825 3.8475,-3.825 2.2725,0 3.8475,1.6425 3.8475,3.825 0,2.205 -1.575,3.8025 -3.8475,3.8025 z" />
      <path
         id="path4861"
         style="fill:#001080;fill-opacity:1"
         d="m 232.77516,1018.4596 c -0.09,0 -0.1575,0 -0.225,0 -0.9,0 -1.2825,0.135 -1.2825,0.765 0,0.5175 0.2925,0.7875 0.9225,0.7875 0.2925,0 0.495,0 0.585,0 l 2.0025,0 c 0.8325,0 1.17,-0.045 1.17,-0.7875 0,-0.6075 -0.2925,-0.7875 -1.0575,-0.7875 -0.135,0 -0.2925,0.023 -0.4725,0.023 l 0,-4.5675 c 0,-1.6425 1.53,-2.6325 2.8575,-2.6325 1.44,0 2.25,0.8775 2.25,2.6325 l 0,4.5675 c -0.135,0 -0.2475,0 -0.36,0 -0.7875,0 -1.1025,0.1575 -1.1025,0.765 0,0.72 0.315,0.7875 1.1025,0.7875 l 2.43,0 c 0.7875,0 1.17,-0.1575 1.17,-0.7875 0,-0.5625 -0.3375,-0.765 -1.035,-0.765 -0.1575,0 -0.3375,0 -0.495,0 l 0,-4.9725 c 0,-2.5425 -1.485,-3.915 -3.5775,-3.915 -1.1475,0 -2.16,0.495 -3.2175,1.485 l 0,-0.7425 c 0,-0.27 -0.2025,-0.45 -0.63,-0.45 l -1.035,0 c -1.0125,0 -1.5075,0 -1.5075,0.765 0,0.5625 0.315,0.7875 1.0125,0.7875 0.1575,0 0.3375,0 0.495,0 l 0,7.0425 z" />
      <path
         id="path4863"
         style="fill:#001080;fill-opacity:1"
         d="m 246.73781,1013.9821 c 0.4275,-1.8225 1.845,-2.9025 3.78,-2.9025 1.7775,0 3.1725,1.1475 3.375,2.9025 l -7.155,0 z m -0.045,1.44 7.38,0 c 1.35,0 1.8225,0 1.8225,-1.035 0,-2.4525 -2.0475,-4.815 -5.3775,-4.815 -3.3975,0 -5.7375,2.1825 -5.7375,5.3325 0,3.285 2.115,5.3775 5.5125,5.3775 1.485,0 3.0825,-0.36 4.59,-1.1025 0.6525,-0.315 0.9675,-0.6525 0.9675,-1.1025 0,-0.405 -0.3375,-0.72 -0.765,-0.72 -0.99,0 -2.4075,1.3725 -4.635,1.3725 -2.2725,0 -3.645,-1.1925 -3.7575,-3.3075 z" />
      <path
         id="path4865"
         style=""
         d="m 278.10562,1010.5846 0.27001,-3.15 c 0,-0.045 0,-0.09 0,-0.135 0,-0.27 -0.11251,-0.315 -0.47251,-0.315 l -0.8775,0 c -0.36,0 -0.47249,0.045 -0.47249,0.315 0,0.045 0,0.09 0,0.135 l 0.29249,3.15 -2.9025,-1.26 c -0.1125,-0.045 -0.20249,-0.045 -0.26999,-0.045 -0.13501,0 -0.20251,0.1125 -0.29251,0.3825 l -0.2925,0.8325 c -0.045,0.1575 -0.0675,0.2925 -0.0675,0.3375 0,0.1125 0.135,0.2025 0.36,0.2475 l 3.06,0.6975 -2.06999,2.385 c -0.11251,0.1125 -0.15751,0.2025 -0.15751,0.315 0,0.067 0.09,0.18 0.2925,0.315 l 0.6975,0.5175 c 0.18,0.135 0.29251,0.18 0.3375,0.18 0.09,0 0.20251,-0.09 0.2925,-0.2475 l 1.6425,-2.7225 1.62,2.7225 c 0.09,0.18 0.18,0.2475 0.2925,0.2475 0.0675,0 0.1575,-0.067 0.3375,-0.18 l 0.72,-0.5175 c 0.2025,-0.135 0.27,-0.2475 0.27,-0.315 0,-0.1125 -0.0675,-0.2025 -0.15749,-0.315 l -2.07,-2.385 3.08249,-0.6975 c 0.225,-0.045 0.3375,-0.135 0.3375,-0.27 0,-0.045 -0.0225,-0.135 -0.0675,-0.315 l -0.27,-0.8325 c -0.09,-0.27 -0.13499,-0.3825 -0.2925,-0.3825 -0.045,0 -0.15749,0.023 -0.27,0.067 l -2.9025,1.2375 z" />
      <path
         id="path4867"
         style="font-style:italic;font-variant:normal;font-weight:normal;font-stretch:normal;font-size:22.5px;line-height:125%;font-family:'Courier 10 Pitch';-inkscape-font-specification:'Courier 10 Pitch, Italic';text-align:start;writing-mode:lr-tb;text-anchor:start;fill:#001080;fill-opacity:1"
         d="m 301.91344,1012.0246 -0.9225,4.4775 c -0.09,0.4275 -0.135,0.81 -0.135,1.1475 0,1.6875 1.0575,2.565 3.06,2.565 1.1925,0 2.4525,-0.2475 3.78,-0.765 0.9675,-0.36 1.4175,-0.63 1.4175,-1.2375 0,-0.36 -0.315,-0.63 -0.81,-0.63 -0.7425,0 -2.16,1.1025 -4.2075,1.1025 -0.9675,0 -1.5075,-0.5175 -1.5075,-1.395 0,-0.18 0.045,-0.45 0.1125,-0.765 l 0.9225,-4.5 4.185,0 c 0.7875,0 1.1925,-0.2925 1.1925,-0.9 0,-0.5175 -0.27,-0.6525 -0.855,-0.6525 l -4.185,0 0.54,-2.4975 c 0.0675,-0.315 0.09,-0.495 0.09,-0.5625 0,-0.3375 -0.36,-0.6975 -0.7875,-0.6975 -0.495,0 -0.8325,0.3825 -0.99,1.125 l -0.585,2.6325 -1.53,0 c -0.7875,0 -1.1925,0.315 -1.1925,0.9225 0,0.5175 0.27,0.63 0.855,0.63 l 1.5525,0 z" />
      <path
         id="path4869"
         style="font-style:italic;font-variant:normal;font-weight:normal;font-stretch:normal;font-size:22.5px;line-height:125%;font-family:'Courier 10 Pitch';-inkscape-font-specification:'Courier 10 Pitch, Italic';text-align:start;writing-mode:lr-tb;text-anchor:start;fill:#001080;fill-opacity:1"
         d="m 312.90609,1011.3721 0.63,7.65 c 0.09,1.035 0.18,1.2825 0.945,1.2825 0.54,0 0.765,-0.225 1.08,-0.8775 l 2.61,-5.445 0.18,5.2425 c 0.0225,0.81 0.225,1.0575 0.8775,1.0575 0.6525,0 0.7875,-0.2025 1.1925,-0.9675 l 4.14,-7.9425 0.2925,0 c 0.4275,0 0.765,-0.36 0.765,-0.9 0,-0.4275 -0.2025,-0.6075 -0.6525,-0.6075 l -2.9925,0 c -0.6525,0 -1.0125,0.315 -1.0125,0.8775 0,0.4275 0.2475,0.63 0.675,0.63 l 1.2375,0 -3.33,6.9075 -0.3375,-5.175 c -0.0225,-0.405 -0.315,-0.63 -0.8325,-0.63 -0.4275,0 -0.7875,0.225 -0.9675,0.6075 l -2.5425,5.2875 -0.2925,-6.9975 1.125,0 c 0.6525,0 0.99,-0.315 0.99,-0.9 0,-0.405 -0.2025,-0.6075 -0.6525,-0.6075 l -3.2175,0 c -0.6525,0 -0.99,0.315 -0.99,0.8775 0,0.4275 0.2475,0.63 0.675,0.63 l 0.405,0 z" />
      <path
         id="path4871"
         style="font-style:italic;font-variant:normal;font-weight:normal;font-stretch:normal;font-size:22.5px;line-height:125%;font-family:'Courier 10 Pitch';-inkscape-font-specification:'Courier 10 Pitch, Italic';text-align:start;writing-mode:lr-tb;text-anchor:start;fill:#001080;fill-opacity:1"
         d="m 325.92375,1015.7596 c 0,2.745 1.9575,4.5225 4.9725,4.5225 3.69,0 6.4125,-2.79 6.4125,-6.1875 0,-2.7225 -1.935,-4.5225 -4.9725,-4.5225 -3.645,0 -6.4125,2.79 -6.4125,6.1875 z m 6.3,-4.7025 c 2.0025,0 3.24,1.1925 3.24,3.0825 0,2.6325 -1.89,4.7025 -4.455,4.7025 -2.025,0 -3.2625,-1.17 -3.2625,-3.1275 0,-2.5425 1.9125,-4.6575 4.4775,-4.6575 z" />
      <path
         id="path4873"
         style=""
         d="m 342.90141,1023.9046 c 0,0.315 0.18,0.5175 0.4275,0.5175 0.5175,0 1.2375,-0.6975 2.0925,-2.0925 1.305,-2.115 1.9575,-4.3425 1.9575,-6.8175 0,-2.475 -0.6525,-4.7025 -1.9575,-6.8175 -0.855,-1.395 -1.575,-2.0925 -2.0925,-2.0925 -0.2475,0 -0.4275,0.18 -0.4275,0.495 0,0.4275 0.6075,1.3275 1.2375,2.925 0.6975,1.8 1.0575,3.555 1.0575,5.49 0,2.475 -0.5625,4.3425 -1.35,6.21 -0.4725,1.125 -0.945,1.8 -0.945,2.1825 z" />
      <path
         id="path4875"
         style=""
         d="m 356.45906,1012.1371 c 0,1.125 0.855,1.9575 2.16,1.9575 1.305,0 2.1825,-0.81 2.1825,-1.9575 0,-1.1475 -0.8775,-1.9575 -2.1825,-1.9575 -1.305,0 -2.16,0.8325 -2.16,1.9575 z m 0.855,5.1975 -1.3275,5.2425 c -0.0225,0.067 -0.045,0.1575 -0.045,0.27 0,0.1575 0.135,0.315 0.3375,0.3825 l 0.72,0.27 c 0.0675,0.023 0.135,0.045 0.2025,0.045 0.2025,0 0.36,-0.135 0.4725,-0.36 l 2.835,-5.895 c 0.0675,-0.135 0.09,-0.225 0.09,-0.2925 0,-0.1125 -0.135,-0.225 -0.3375,-0.225 l -2.2725,0 c -0.4725,0 -0.5625,0.135 -0.675,0.5625 z" />
      <path
         id="path4877"
         style=""
         d="m 5.6925,1038.9346 0,1.035 c 0,2.0925 0.315,3.195 2.0025,3.69 -1.6875,0.5175 -2.0025,1.6425 -2.0025,3.7125 l 0,1.035 c 0,1.2825 -0.09,1.89 -1.2375,2.0925 -0.63,0.1125 -1.2375,0.067 -1.2375,0.8775 0,0.5625 0.3375,0.8775 0.9675,0.8775 2.835,0 3.3525,-1.5075 3.3525,-4.41 l 0,-0.6975 c 0,-2.1825 0.72,-2.34 2.16,-2.5875 0.6075,-0.1125 0.81,-0.36 0.81,-0.9 0,-0.495 -0.225,-0.72 -0.675,-0.8325 -1.3275,-0.3375 -2.295,-0.1575 -2.295,-2.6325 l 0,-0.6975 c 0,-2.9475 -0.5175,-4.4325 -3.4875,-4.4325 -0.495,0 -0.8325,0.3375 -0.8325,0.8775 0,0.9 0.7875,0.7425 1.3725,0.9 1.035,0.27 1.1025,0.855 1.1025,2.0925 z" />
    </g>
  </g>
</svg>
